<svg height="512pt" viewBox="0 0 512 512.00168" width="512pt" xmlns="http://www.w3.org/2000/svg"><path d="m319.570312 499.089844c-7.855468 0-14.902343-5.492188-16.574218-13.488282-7.734375-37.003906 1.835937-99.058593 3.917968-108.9375 1.933594-9.160156 10.925782-15.023437 20.085938-13.09375 9.160156 1.933594 15.019531 10.925782 13.089844 20.085938-2.429688 11.519531-9.835938 66.632812-3.90625 95.011719 1.914062 9.164062-3.964844 18.148437-13.128906 20.0625-1.167969.242187-2.335938.359375-3.484376.359375zm0 0" fill="#efd176"/><path d="m411.214844 499.089844c-7.855469 0-14.90625-5.492188-16.574219-13.488282-7.734375-37.007812 1.835937-99.0625 3.917969-108.941406 1.929687-9.160156 10.921875-15.023437 20.085937-13.089844 9.160157 1.929688 15.019531 10.921876 13.089844 20.082032-2.429687 11.523437-9.839844 66.632812-3.910156 95.015625 1.914062 9.164062-3.960938 18.144531-13.125 20.058593-1.167969.246094-2.335938.363282-3.484375.363282zm0 0" fill="#efd176"/><path d="m192.671875 423.882812c-.15625 0-.3125 0-.46875-.003906-9.363281-.03125-16.925781-7.648437-16.890625-17.011718.035156-9.339844 7.617188-16.890626 16.949219-16.890626.15625-.003906.3125 0 .46875 0 35.777343 0 41.355469-17.101562 49.234375-69.640624.929687-6.1875 1.890625-12.585938 2.996094-19.117188 1.566406-9.230469 10.324218-15.445312 19.546874-13.878906 9.230469 1.566406 15.445313 10.316406 13.878907 19.546875-1.050781 6.210937-1.988281 12.445312-2.890625 18.476562-3.667969 24.457031-7.132813 47.554688-17.835938 65.640625-13.089844 22.121094-34.351562 32.878906-64.988281 32.878906zm0 0" fill="#efd176"/><path d="m271.789062 83.046875c27.628907 19.347656 38.101563 55.207031 41.8125 73.902344 1.347657 6.792969-3.246093 13.351562-10.089843 14.410156-18.839844 2.90625-56.117188 5.328125-83.746094-14.015625-27.628906-19.347656-38.101563-55.207031-41.8125-73.902344-1.347656-6.792968 3.246094-13.355468 10.089844-14.410156 18.835937-2.90625 56.113281-5.332031 83.746093 14.015625zm0 0" fill="#8ee2cf"/><path d="m262.339844 139.296875c-1.484375 0-2.984375-.441406-4.296875-1.355469l-33.136719-23.203125c-3.390625-2.375-4.21875-7.054687-1.839844-10.445312 2.375-3.394531 7.050782-4.21875 10.445313-1.84375l33.136719 23.203125c3.390624 2.375 4.21875 7.054687 1.839843 10.445312-1.457031 2.085938-3.785156 3.199219-6.148437 3.199219zm0 0" fill="#6fce91"/><path d="m363.578125 66.863281c-19.347656 27.628907-16.921875 64.90625-14.015625 83.746094 1.058594 6.84375 7.613281 11.4375 14.410156 10.085937 18.695313-3.707031 54.554688-14.179687 73.898438-41.8125 19.347656-27.628906 16.925781-64.90625 14.015625-83.742187-1.054688-6.847656-7.613281-11.4375-14.40625-10.089844-18.699219 3.710938-54.554688 14.183594-73.902344 41.8125zm0 0" fill="#8ee2cf"/><path d="m389.117188 116.941406c-1.484376 0-2.984376-.4375-4.292969-1.355468-3.394531-2.375-4.21875-7.050782-1.84375-10.445313l23.203125-33.136719c2.375-3.394531 7.050781-4.21875 10.445312-1.84375 3.390625 2.375 4.21875 7.050782 1.839844 10.445313l-23.203125 33.136719c-1.457031 2.085937-3.785156 3.199218-6.148437 3.199218zm0 0" fill="#6fce91"/><path d="m364.441406 78.988281c5.855469 33.21875-12.09375 65.976563-22.691406 81.820313-3.847656 5.757812-11.734375 7.148437-17.320312 3.054687-15.378907-11.261719-43.449219-35.90625-49.308594-69.125-5.855469-33.21875 12.09375-65.980469 22.691406-81.824219 3.851562-5.753906 11.734375-7.144531 17.324219-3.054687 15.375 11.265625 43.449219 35.910156 49.304687 69.128906zm0 0" fill="#8ee2cf"/><path d="m323.285156 114.28125c-3.570312 0-6.734375-2.558594-7.378906-6.199219l-7.023438-39.835937c-.71875-4.082032 2.007813-7.96875 6.085938-8.6875 4.082031-.71875 7.96875 2.003906 8.6875 6.082031l7.023438 39.839844c.71875 4.078125-2.003907 7.96875-6.082032 8.6875-.441406.078125-.878906.113281-1.3125.113281zm0 0" fill="#6fce91"/><path d="m328.304688 135.1875c68.90625-12.148438 127.730468 33.433594 148.824218 114.453125 21.941406 84.273437 1.03125 153.710937-98.449218 171.25-99.476563 17.539063-142.875-40.554687-151.082032-127.253906-7.886718-83.34375 31.800782-146.296875 100.707032-158.449219zm0 0" fill="#f7ef87"/><g fill="#efd176"><path d="m288.375 149.613281c-43.742188 25.523438-66.984375 78.460938-60.777344 144.023438 8.183594 86.457031 51.371094 144.460937 150.261719 127.390625-132.894531-52.242188-124.078125-190.328125-89.484375-271.414063zm0 0"/><path d="m333.429688 242.632812c-1.488282 0-2.988282-.441406-4.296876-1.359374-3.390624-2.375-4.214843-7.050782-1.839843-10.445313l9.976562-14.246094c1.140625-1.632812 2.882813-2.742187 4.839844-3.085937 1.960937-.347656 3.976563.101562 5.605469 1.242187l14.25 9.980469c3.394531 2.375 4.21875 7.050781 1.839844 10.441406-2.375 3.394532-7.050782 4.21875-10.441407 1.84375l-8.109375-5.675781-5.675781 8.105469c-1.457031 2.082031-3.785156 3.199218-6.148437 3.199218zm0 0"/><path d="m402.6875 230.417969c-1.484375 0-2.984375-.4375-4.292969-1.355469-3.394531-2.375-4.21875-7.050781-1.84375-10.445312l9.980469-14.25c2.375-3.394532 7.050781-4.21875 10.445312-1.84375l14.25 9.980468c3.390626 2.375 4.214844 7.050782 1.839844 10.441406-2.375 3.394532-7.050781 4.21875-10.445312 1.84375l-8.105469-5.675781-5.675781 8.105469c-1.460938 2.085938-3.785156 3.199219-6.152344 3.199219zm0 0"/><path d="m264.167969 254.84375c-1.484375 0-2.984375-.4375-4.292969-1.355469-3.394531-2.375-4.21875-7.050781-1.84375-10.445312l9.980469-14.25c1.140625-1.628907 2.882812-2.738281 4.839843-3.085938 1.957032-.347656 3.976563.101563 5.605469 1.242188l14.25 9.980469c3.390625 2.375 4.21875 7.050781 1.839844 10.445312-2.375 3.390625-7.050781 4.214844-10.445313 1.839844l-8.105468-5.675782-5.675782 8.109376c-1.460937 2.082031-3.785156 3.195312-6.152343 3.195312zm0 0"/><path d="m393.09375 378.511719c-1.484375 0-2.984375-.441407-4.292969-1.359375-3.394531-2.375-4.21875-7.050782-1.84375-10.441406l9.980469-14.25c2.375-3.394532 7.050781-4.21875 10.445312-1.84375l14.25 9.976562c3.390626 2.378906 4.214844 7.054688 1.839844 10.445312-2.375 3.394532-7.054687 4.21875-10.445312 1.84375l-8.105469-5.675781-5.675781 8.105469c-1.460938 2.082031-3.785156 3.199219-6.152344 3.199219zm0 0"/><path d="m323.835938 390.722656c-1.488282 0-2.988282-.4375-4.296876-1.355468-3.390624-2.375-4.21875-7.050782-1.839843-10.445313l9.976562-14.25c2.378907-3.390625 7.050781-4.21875 10.445313-1.839844l14.25 9.976563c3.394531 2.375 4.21875 7.050781 1.84375 10.445312-2.375 3.390625-7.054688 4.214844-10.445313 1.839844l-8.109375-5.675781-5.675781 8.109375c-1.457031 2.082031-3.785156 3.195312-6.148437 3.195312zm0 0"/></g><path d="m303.253906 335.070312c-2.296875-13.03125-17.421875-21.253906-33.785156-18.371093-16.359375 2.882812-27.761719 15.785156-25.464844 28.816406 2.296875 13.027344 17.421875 21.253906 33.78125 18.371094 16.363282-2.886719 27.765625-15.785157 25.46875-28.816407zm0 0" fill="#eda1ab"/><path d="m404.621094 317.171875c2.296875 13.027344 17.421875 21.253906 33.785156 18.371094 16.363281-2.886719 27.761719-15.785157 25.464844-28.816407s-17.421875-21.253906-33.78125-18.371093c-16.363282 2.886719-27.765625 15.785156-25.46875 28.816406zm0 0" fill="#eda1ab"/><path d="m190.65625 425.375c-3.605469 0-7.203125-1.375-9.953125-4.125l-43.0625-43.0625c-5.496094-5.496094-5.496094-14.40625 0-19.90625 5.496094-5.496094 14.410156-5.496094 19.90625 0l43.0625 43.066406c5.496094 5.496094 5.496094 14.40625 0 19.902344-2.75 2.75-6.351563 4.125-9.953125 4.125zm0 0" fill="#e1b89a"/><path d="m171.597656 353.0625c0 21.636719-17.539062 39.175781-39.175781 39.175781s-39.179687-17.539062-39.179687-39.175781 17.542968-39.175781 39.179687-39.175781 39.175781 17.539062 39.175781 39.175781zm0 0" fill="#7acefa"/><path d="m119.761719 315.980469c-6.546875 2.226562-12.585938 6.214843-17.351563 11.898437-.804687.957032-1.546875 1.945313-2.246094 2.953125l54.488282 54.484375c2.832031-1.953125 5.457031-4.308594 7.777344-7.070312 3.207031-3.820313 5.546874-8.078125 7.066406-12.53125zm0 0" fill="#a3defe"/><path d="m431.351562 359.796875c-15.585937 0-31.929687-4.316406-47.304687-12.753906-8.207031-4.503907-11.210937-14.808594-6.707031-23.015625 4.503906-8.210938 14.8125-11.210938 23.019531-6.707032 15.757813 8.648438 32.335937 10.90625 45.484375 6.191407 11.4375-4.101563 20.171875-13.519531 25.953125-27.988281 3.476563-8.691407 13.34375-12.921876 22.035156-9.445313 8.691407 3.472656 12.921875 13.339844 9.449219 22.03125-11.890625 29.738281-31.574219 42.144531-45.996094 47.316406-8.164062 2.925781-16.921875 4.371094-25.933594 4.371094zm0 0" fill="#efd176"/><path d="m218.996094 485.878906c0-10.28125-20.351563-18.621094-45.457032-18.621094-25.105468 0-45.457031 8.339844-45.457031 18.621094 0 10.285156 20.351563 18.621094 45.457031 18.621094 25.105469 0 45.457032-8.335938 45.457032-18.621094zm0 0" fill="#e1b89a"/><path d="m98.414062 442.640625c0-10.285156-20.351562-18.621094-45.457031-18.621094s-45.457031 8.335938-45.457031 18.621094c0 10.28125 20.351562 18.621094 45.457031 18.621094s45.457031-8.339844 45.457031-18.621094zm0 0" fill="#e1b89a"/><path d="m418.355469 279.710938c-.71875-4.078126-4.609375-6.800782-8.6875-6.082032-4.082031.71875-6.804688 4.609375-6.085938 8.6875l1.84375 10.460938c.644531 3.640625 3.808594 6.199218 7.378907 6.199218.429687 0 .871093-.035156 1.308593-.113281 4.082031-.71875 6.804688-4.609375 6.085938-8.6875zm-244.816407 180.050781c-26.316406 0-52.957031 8.96875-52.957031 26.121093 0 17.148438 26.640625 26.117188 52.957031 26.117188 26.316407 0 52.957032-8.972656 52.957032-26.117188 0-17.148437-26.640625-26.121093-52.957032-26.121093zm0 37.238281c-26.1875 0-37.957031-8.839844-37.957031-11.121094s11.769531-11.121094 37.957031-11.121094 37.957032 8.839844 37.957032 11.121094-11.769532 11.121094-37.957032 11.121094zm323.074219-217.890625c-2.03125-.8125-4.109375-1.324219-6.1875-1.570313-1.359375-9.582031-3.375-19.566406-6.039062-29.789062-10.785157-41.425781-31.242188-74.699219-59.164063-96.214844-2.042968-1.574218-4.117187-3.070312-6.21875-4.503906 10.285156-6.800781 18.671875-14.789062 25.011719-23.84375 7.886719-11.261719 13.152344-24.953125 15.652344-40.6875.652343-4.089844-2.140625-7.933594-6.230469-8.582031-4.082031-.644531-7.933594 2.140625-8.582031 6.230469-2.140625 13.464843-6.558594 25.050781-13.125 34.433593-6.480469 9.257813-15.691407 17.253907-27.390625 23.824219-11.808594-5.902344-24.3125-9.769531-37.308594-11.542969 5.867188-17.382812 7.492188-33.890625 4.796875-49.179687-.429687-2.445313-.980469-4.84375-1.617187-7.199219 7.910156-10.96875 27.078124-29.8125 68.730468-38.078125 1.257813-.25 2.535156.019531 3.59375.757812 1.054688.742188 1.746094 1.847657 1.941406 3.117188.527344 3.417969.953126 6.90625 1.261719 10.371094.367188 4.125 4.007813 7.171875 8.132813 6.808594 4.125-.367188 7.175781-4.011719 6.804687-8.136719-.335937-3.785157-.796875-7.597657-1.375-11.328125-.824219-5.351563-3.722656-10.011719-8.164062-13.117188-4.4375-3.109375-9.808594-4.242187-15.117188-3.1875-18.425781 3.65625-50.601562 13.136719-71.945312 36.59375-11.539063-23.601562-31.628907-41.042968-44.503907-50.476562-4.367187-3.199219-9.710937-4.445313-15.046874-3.5-5.335938.9375-9.933594 3.9375-12.941407 8.4375-8.875 13.265625-21.789062 36.527344-24.558593 62.652344-28.082032-14.742188-61.558594-12.644532-80.125-9.777344-5.351563.824218-10.007813 3.722656-13.117188 8.164062-3.105469 4.4375-4.238281 9.804688-3.183594 15.117188 4.058594 20.457031 15.285156 57.871094 44.867188 78.582031 9.054687 6.34375 19.667968 10.980469 31.660156 13.855469-1.484375 2.0625-2.921875 4.179687-4.304688 6.359375-18.878906 29.765625-26.722656 68.027343-22.6875 110.644531 1.78125 18.84375 5.117188 35.828125 9.96875 50.925781-6.226562 30.175781-13.496093 37.207031-37.347656 37.207031h-.101562c-.105469 0-.203125 0-.304688 0l-15.410156-15.40625c5.46875-17.457031.347656-37.292968-14.515625-49.765624-19.714844-16.542969-49.214844-13.960938-65.757813 5.753906-8.015624 9.550781-11.832031 21.648437-10.742187 34.070312 1.085937 12.417969 6.945313 23.671875 16.496094 31.6875 8.484375 7.117188 18.976562 10.921875 29.921875 10.921875 1.375 0 2.761718-.058593 4.148437-.179687 3.417969-.296875 6.746094-.972656 9.945313-1.972656l28.964844 28.964843c4.078124 4.074219 9.496093 6.320313 15.257812 6.320313 2.902344 0 5.714844-.574219 8.316406-1.660156 27.757813-1.355469 48.675782-12.070313 62.265625-31.890626 3.515625 3.566407 7.234375 6.859376 11.171875 9.863282 6.550782 4.988281 13.664063 9.125 21.296875 12.441406-1.519531 19.960938-2.167969 45.816406 1.945313 65.507812 2.355468 11.273438 12.414062 19.453126 23.917968 19.453126 1.675782 0 3.363282-.175782 5.019532-.519532 13.199218-2.757812 21.691406-15.738281 18.933594-28.9375-2.160157-10.34375-2.652344-26.042968-1.453126-45.671875 1.03125.019531 2.054688.050781 3.097657.050781 10.964843 0 22.578125-1.078124 34.8125-3.234374 1.679687-.296876 3.332031-.613282 4.972656-.9375-1.1875 18.871093-1.398437 41.886718 2.34375 59.796874 2.355469 11.273438 12.414063 19.453126 23.917969 19.453126 1.675781 0 3.363281-.175782 5.019531-.519532 6.390625-1.335937 11.882813-5.082031 15.460937-10.546875 3.574219-5.464843 4.808594-11.996093 3.472657-18.390625-4.027344-19.277344-1.351563-51.382812.441406-67.675781 6.125-3.441406 11.785156-7.242187 16.929687-11.425781 16.707032-13.585938 28.3125-31.160156 34.550782-52.238282 8.660156-8.085937 16.921875-19.304687 23.152344-34.902343 5.003906-12.515625-1.109376-26.769531-13.628907-31.777344zm-384.554687 98.21875c-6.480469-5.4375-10.457032-13.074219-11.195313-21.503906-.738281-8.429688 1.851563-16.640625 7.289063-23.121094 6.257812-7.457031 15.246094-11.304687 24.292968-11.304687 7.1875 0 14.414063 2.429687 20.335938 7.398437 13.378906 11.226563 15.128906 31.246094 3.902344 44.628906-11.226563 13.378907-31.246094 15.128907-44.625 3.902344zm83.246094 38.621094c-1.242188 1.242187-2.890626 1.925781-4.648438 1.925781-1.753906 0-3.40625-.683594-4.648438-1.925781l-25.558593-25.558594c2.8125-2.121094 5.410156-4.5625 7.726562-7.324219.546875-.648437 1.066407-1.308594 1.570313-1.980468l14.417968 14.421874c.011719.011719.023438.019532.035157.03125l11.105469 11.109376c2.5625 2.5625 2.5625 6.734374 0 9.300781zm108.742187-398.867188c.714844-1.066406 1.808594-1.78125 3.078125-2.003906 1.269531-.226563 2.542969.070313 3.578125.832031 15.011719 10.996094 40.992187 33.980469 46.351563 64.378906 2.4375 13.824219.5625 29.09375-5.539063 45.453126-8.039063-.078126-16.226563.597656-24.511719 2.058593-8.292968 1.464844-16.214844 3.625-23.742187 6.449219-11.332031-13.285156-18.316407-26.992188-20.753907-40.816406-5.359374-30.398438 11.195313-60.882813 21.539063-76.351563zm-79.980469 134.117188c-10.851562-7.601563-30.320312-26.699219-38.753906-69.21875-.25-1.261719.015625-2.539063.757812-3.59375.738282-1.058594 1.847657-1.746094 3.117188-1.941407 41.96875-6.480468 66.425781 4.671876 77.609375 12.273438.207031 2.429688.511719 4.871094.941406 7.320312 2.695313 15.289063 9.871094 30.242188 21.328125 44.570313-11.605468 6.113281-22.035156 14.023437-31.113281 23.609375-13.242187-2.171875-24.628906-6.539062-33.886719-13.019531zm-12.113281 263.347656c.964844-6.378906-.921875-13.097656-5.671875-18.09375 17.832031-2.96875 27.109375-12.433594 33.0625-28.285156 3.476562 6.964843 7.386719 13.378906 11.722656 19.234375-8.71875 14.609375-21.605468 23.558594-39.113281 27.144531zm109.574219 76.839844c-.648438.132812-1.308594.203125-1.957032.203125-4.4375 0-8.320312-3.164063-9.234374-7.523438-3.5-16.761718-3.183594-38.996094-1.960938-57.265625 5.972656 1.652344 12.21875 2.867188 18.730469 3.644531-.972657 16.042969-1.214844 35.632813 1.738281 49.757813 1.0625 5.101563-2.222656 10.117187-7.316406 11.183594zm97.613281-4.078125c-1.382813 2.113281-3.503906 3.5625-5.972656 4.078125-.648438.132812-1.304688.203125-1.953125.203125-4.441406 0-8.324219-3.164063-9.234375-7.519532-3.714844-17.78125-3.125-41.734374-1.746094-60.355468 6.878906-1.90625 13.394531-4.117188 19.539063-6.636719-1.652344 18.28125-3.035157 45.191406.710937 63.125.515625 2.46875.039063 4.992187-1.34375 7.105469zm-27.558594-76.808594c-.019531.003906-.039062.007812-.058593.011719-4.539063 1.132812-9.253907 2.128906-14.144532 2.992187-40.164062 7.082032-72.421875 1.613282-95.878906-16.253906-5.605469-4.269531-10.722656-9.242188-15.355469-14.898438-.179687-.253906-.378906-.492187-.585937-.722656-8.457032-10.519531-15.257813-23.375-20.375-38.496094-.113282-.503906-.277344-.992187-.488282-1.460937-4.6875-14.277344-7.910156-30.539063-9.628906-48.742187-3.71875-39.273438 3.34375-74.265626 20.421875-101.199219 3.246094-5.121094 6.824219-9.882813 10.703125-14.28125.097656-.097657.183594-.203125.277344-.304688 16.222656-18.25 37.742188-30.09375 63.136719-34.570312 8.902343-1.570313 17.667969-2.125 26.222656-1.6875.035156.003906.070313.003906.105469.007812 21.804687 1.136719 42.25 8.738281 60.132812 22.523438 25.261719 19.464843 43.863282 49.933593 53.804688 88.113281 2.59375 9.960938 4.539062 19.652344 5.816406 28.914062-4.761719 2.632813-8.679688 6.859376-10.855469 12.296876-4.949219 12.386718-12.191406 20.363281-21.519531 23.710937-11.128906 3.988281-25.46875 1.90625-39.347656-5.707031-5.726563-3.140625-12.332032-3.867188-18.601563-2.039063-6.273437 1.824219-11.457031 5.984375-14.597656 11.710938-3.144531 5.726562-3.867187 12.332031-2.039063 18.601562 1.824219 6.273438 5.984376 11.457031 11.710938 14.597657 16.308594 8.949218 33.914062 13.679687 50.914062 13.679687 9.980469 0 19.558594-1.617187 28.464844-4.8125 1.617188-.578125 3.292969-1.242187 5.015625-2-13.601562 24.5-38.128906 41.257813-73.25 50.015625zm104.734375-105.175781c-10.851562 27.148437-28.589844 38.390625-41.5625 43.039062-7.277344 2.609375-15.148437 3.933594-23.402344 3.933594-14.484374 0-29.59375-4.089844-43.695312-11.832031-2.214844-1.214844-3.820312-3.21875-4.527344-5.640625-.707031-2.425781-.425781-4.976563.789063-7.191407 1.214843-2.214843 3.21875-3.820312 5.640625-4.527343.875-.253907 1.769531-.378907 2.65625-.378907 1.570312 0 3.121094.394532 4.535156 1.167969 17.640625 9.679688 36.457031 12.113281 51.625 6.675781 13.550781-4.859374 23.773438-15.710937 30.386719-32.261718 1.9375-4.839844 7.449219-7.199219 12.285156-5.269532 4.839844 1.933594 7.203125 7.445313 5.269531 12.285157zm-443.359375 111.195312c-26.316406 0-52.957031 8.972657-52.957031 26.121094s26.640625 26.121094 52.957031 26.121094c1.332031 0 2.648438-.023438 3.949219-.066407 4.140625-.136718 7.386719-3.605468 7.25-7.746093s-3.625-7.386719-7.746094-7.246094c-1.136718.039063-2.289062.058594-3.453125.058594-26.1875 0-37.957031-8.839844-37.957031-11.121094s11.769531-11.121094 37.957031-11.121094 37.957031 8.839844 37.957031 11.121094c0 .292969-.652343 1.800781-3.835937 3.800781-3.503906 2.203125-4.558594 6.835938-2.355469 10.339844 2.207032 3.507812 6.835938 4.5625 10.339844 2.359375 8.96875-5.640625 10.851562-12.085937 10.851562-16.5 0-17.148437-26.640624-26.121094-52.957031-26.121094zm239.347657-114.582031c-.71875-4.078125-4.605469-6.800781-8.6875-6.082031-4.078126.71875-6.804688 4.609375-6.085938 8.6875l1.847656 10.460937c.640625 3.640625 3.804688 6.199219 7.375 6.199219.433594 0 .871094-.039063 1.3125-.113281 4.078125-.71875 6.800782-4.609375 6.082032-8.691406zm105.023437-34.542969c.851563 0 1.71875-.148437 2.5625-.453125l18.640625-6.785156c3.890625-1.417969 5.898438-5.722656 4.484375-9.613281-1.417969-3.894531-5.722656-5.898438-9.613281-4.484375l-18.640625 6.785156c-3.894531 1.417969-5.898438 5.722656-4.484375 9.613281 1.109375 3.042969 3.984375 4.9375 7.050781 4.9375zm-34.910156 29.101563c-4.453125-1.355469-9.242188-1.640625-13.851563-.828125-4.605468.8125-9.007812 2.71875-12.730468 5.511719-3.3125 2.488281-3.980469 7.191406-1.492188 10.503906 1.472656 1.960937 3.722656 2.996094 6 2.996094 1.566406 0 3.148438-.492188 4.5-1.503907 1.871094-1.40625 4-2.328125 6.328125-2.738281 2.332031-.40625 4.644531-.269531 6.882813.410156 3.960937 1.203125 8.152343-1.03125 9.359374-4.996094 1.203126-3.960937-1.03125-8.152343-4.996093-9.355468zm-70.828125-19.152344h-19.832032c-4.144531 0-7.5 3.359375-7.5 7.5s3.355469 7.5 7.5 7.5h19.832032c4.144531 0 7.5-3.359375 7.5-7.5s-3.355469-7.5-7.5-7.5zm0 0"/></svg>