<?xml version="1.0" encoding="UTF-8" standalone="no"?>
<svg
   xmlns:dc="http://purl.org/dc/elements/1.1/"
   xmlns:cc="http://creativecommons.org/ns#"
   xmlns:rdf="http://www.w3.org/1999/02/22-rdf-syntax-ns#"
   xmlns:svg="http://www.w3.org/2000/svg"
   xmlns="http://www.w3.org/2000/svg"
   height="512pt"
   viewBox="-32 0 512 512.0017"
   width="512pt"
   version="1.1"
   id="svg56">
  <metadata
     id="metadata62">
    <rdf:RDF>
      <cc:Work
         rdf:about="">
        <dc:format>image/svg+xml</dc:format>
        <dc:type
           rdf:resource="http://purl.org/dc/dcmitype/StillImage" />
        <dc:title></dc:title>
      </cc:Work>
    </rdf:RDF>
  </metadata>
  <defs
     id="defs60" />
  <path
     d="m345.097656 327.113281c-19.527344 0-39.804687-5.136719-57.886718-15.0625-8.566407-4.703125-11.699219-15.457031-7-24.023437 4.703124-8.566406 15.460937-11.699219 24.023437-7 7.3125 4.011718 33.292969 16.4375 60.632813 7.816406 17.882812-5.636719 32.324218-19.390625 42.921874-40.878906 4.320313-8.761719 14.933594-12.363282 23.691407-8.042969 8.765625 4.324219 12.367187 14.929687 8.042969 23.695313-14.820313 30.050781-36.957032 50.445312-64.019532 58.976562-9.609375 3.03125-19.898437 4.519531-30.40625 4.519531zm0 0"
     fill="#efd176"
     id="path2" />
  <path
     d="m105.691406 86.355469c28.839844 20.191406 39.769532 57.617187 43.644532 77.132812 1.40625 7.089844-3.386719 13.9375-10.53125 15.039063-19.664063 3.035156-58.570313 5.566406-87.410157-14.628906-28.839843-20.191407-39.769531-57.621094-43.640625-77.132813-1.410156-7.09375 3.382813-13.9375 10.527344-15.039063 19.664062-3.035156 58.570312-5.566406 87.410156 14.628907zm0 0"
     fill="#8ee2cf"
     id="path4" />
  <path
     d="m95.832031 144.738281c-1.488281 0-2.988281-.441406-4.296875-1.359375l-34.585937-24.21875c-3.394531-2.375-4.21875-7.050781-1.84375-10.445312 2.375-3.394532 7.054687-4.214844 10.445312-1.839844l34.589844 24.21875c3.390625 2.375 4.214844 7.050781 1.839844 10.445312-1.457031 2.082032-3.785157 3.199219-6.148438 3.199219zm0 0"
     fill="#6fce91"
     id="path6" />
  <path
     d="m201.5 69.460938c-20.195312 28.839843-17.664062 67.746093-14.628906 87.410156 1.101562 7.144531 7.949218 11.9375 15.039062 10.53125 19.515625-3.875 56.941406-14.804688 77.136719-43.644532 20.191406-28.839843 17.664063-67.746093 14.628906-87.410156-1.105469-7.144531-7.949219-11.9375-15.042969-10.53125-19.511718 3.875-56.941406 14.804688-77.132812 43.644532zm0 0"
     fill="#8ee2cf"
     id="path8" />
  <path
     d="m228.15625 121.402344c-1.484375 0-2.984375-.4375-4.292969-1.355469-3.394531-2.375-4.21875-7.050781-1.84375-10.445313l24.21875-34.585937c2.375-3.394531 7.054688-4.21875 10.445313-1.84375 3.394531 2.375 4.21875 7.054687 1.84375 10.445313l-24.21875 34.589843c-1.460938 2.082031-3.789063 3.195313-6.152344 3.195313zm0 0"
     fill="#6fce91"
     id="path10" />
  <path
     d="m202.402344 82.117188c6.113281 34.667968-12.621094 68.863281-23.683594 85.402343-4.019531 6.007813-12.25 7.457031-18.082031 3.1875-16.046875-11.757812-45.347657-37.480469-51.464844-72.152343-6.113281-34.671876 12.625-68.867188 23.683594-85.402344 4.019531-6.007813 12.25-7.460938 18.082031-3.1875 16.050781 11.753906 45.351562 37.480468 51.464844 72.152344zm0 0"
     fill="#8ee2cf"
     id="path12" />
  <path
     d="m159.445312 118.628906c-3.570312 0-6.738281-2.5625-7.378906-6.199218l-7.332031-41.582032c-.71875-4.078125 2.003906-7.96875 6.085937-8.6875 4.082032-.71875 7.96875 2.003906 8.6875 6.082032l7.332032 41.582031c.71875 4.078125-2.003906 7.96875-6.082032 8.6875-.441406.078125-.878906.117187-1.3125.117187zm0 0"
     fill="#6fce91"
     id="path14" />
  <path
     d="m164.683594 140.777344c71.921875-12.683594 133.320312 34.894531 155.335937 119.457031 22.902344 87.964844 1.074219 160.4375-102.753906 178.746094-103.832031 18.308593-149.132813-42.332031-157.695313-132.820313-8.234374-86.992187 33.191407-152.703125 105.113282-165.382812zm0 0"
     fill="#f7ef87"
     id="path16" />
  <g
     fill="#efd176"
     id="g30">
    <path
       d="m123.003906 155.832031c-45.652344 26.640625-69.914062 81.894531-63.433594 150.328125 8.539063 90.238282 53.617188 150.785156 156.835938 132.964844-138.714844-54.527344-129.507812-198.65625-93.402344-283.292969zm0 0"
       id="path18" />
    <path
       d="m171.292969 259.753906c-1.484375 0-2.984375-.441406-4.292969-1.359375-3.394531-2.375-4.21875-7.050781-1.84375-10.441406l10.414062-14.875c2.375-3.394531 7.054688-4.21875 10.445313-1.84375l14.875 10.417969c3.394531 2.375 4.21875 7.050781 1.839844 10.441406-2.375 3.394531-7.050781 4.21875-10.441407 1.84375l-8.730468-6.113281-6.113282 8.730469c-1.460937 2.082031-3.789062 3.199218-6.152343 3.199218zm0 0"
       id="path20" />
    <path
       d="m243.585938 247.007812c-1.488282 0-2.988282-.441406-4.296876-1.359374-3.390624-2.375-4.21875-7.050782-1.839843-10.445313l10.414062-14.871094c2.375-3.394531 7.050781-4.21875 10.445313-1.84375l14.871094 10.414063c3.394531 2.378906 4.21875 7.054687 1.84375 10.445312-2.378907 3.394532-7.054688 4.21875-10.445313 1.84375l-8.730469-6.113281-6.113281 8.730469c-1.457031 2.082031-3.785156 3.199218-6.148437 3.199218zm0 0"
       id="path22" />
    <path
       d="m99.003906 272.5c-1.488281 0-2.988281-.4375-4.296875-1.355469-3.390625-2.375-4.21875-7.054687-1.839843-10.445312l10.414062-14.875c2.375-3.390625 7.050781-4.21875 10.445312-1.839844l14.871094 10.414063c3.394532 2.375 4.21875 7.050781 1.84375 10.445312s-7.050781 4.214844-10.445312 1.839844l-8.730469-6.113282-6.113281 8.730469c-1.457032 2.085938-3.785156 3.199219-6.148438 3.199219zm0 0"
       id="path24" />
    <path
       d="m232.308594 394.417969c-1.488282 0-2.988282-.441407-4.296875-1.355469-3.390625-2.378906-4.214844-7.054688-1.839844-10.445312l10.414063-14.875c2.375-3.394532 7.054687-4.21875 10.445312-1.839844l14.875 10.414062c3.390625 2.375 4.21875 7.050782 1.839844 10.445313-2.375 3.394531-7.050782 4.214843-10.445313 1.839843l-8.730469-6.113281-6.113281 8.730469c-1.457031 2.085938-3.785156 3.199219-6.148437 3.199219zm0 0"
       id="path26" />
    <path
       d="m160.019531 407.167969c-1.488281 0-2.988281-.441407-4.296875-1.359375-3.390625-2.375-4.21875-7.054688-1.839844-10.445313l10.414063-14.875c2.375-3.390625 7.050781-4.214843 10.445313-1.839843l14.871093 10.414062c3.394531 2.375 4.21875 7.054688 1.84375 10.445312-2.378906 3.390626-7.054687 4.214844-10.445312 1.839844l-8.730469-6.113281-6.113281 8.730469c-1.460938 2.085937-3.785157 3.203125-6.148438 3.203125zm0 0"
       id="path28" />
  </g>
  <path
     d="m142.945312 326.851562c-2.394531-13.597656-18.183593-22.183593-35.261718-19.171874-17.078125 3.011718-28.980469 16.476562-26.582032 30.074218 2.398438 13.601563 18.1875 22.183594 35.261719 19.175782 17.078125-3.011719 28.980469-16.476563 26.582031-30.078126zm0 0"
     fill="#eda1ab"
     id="path32" />
  <path
     d="m248.746094 308.183594c2.398437 13.601562 18.183594 22.183594 35.261718 19.175781 17.078126-3.011719 28.980469-16.476563 26.582032-30.078125-2.394532-13.597656-18.183594-22.183594-35.261719-19.171875-17.078125 3.007813-28.980469 16.476563-26.582031 30.074219zm0 0"
     fill="#eda1ab"
     id="path34" />
  <path
     d="m114.535156 189.34375-28.1875 4.96875c-11.84375 2.085938-18.746094 14.5625-14.21875 25.707031l2.84375 7.003907c4.78125 11.773437 17.136719 18.609374 29.652344 16.402343l9.53125-1.683593c12.515625-2.207032 21.789062-12.855469 22.253906-25.554688l.277344-7.554688c.441406-12.015624-10.3125-21.378906-22.152344-19.289062zm0 0"
     fill="#4e5660"
     id="path36" />
  <path
     d="m228.417969 169.261719 28.1875-4.96875c11.839843-2.089844 22.59375 7.273437 22.152343 19.289062l-.277343 7.558594c-.464844 12.699219-9.738281 23.347656-22.253907 25.554687l-9.53125 1.679688c-12.515624 2.207031-24.871093-4.628906-29.652343-16.402344l-2.84375-7.003906c-4.527344-11.140625 2.375-23.621094 14.21875-25.707031zm0 0"
     fill="#4e5660"
     id="path38" />
  <path
     d="m150.464844 436.472656c-1.523438 0-3.070313-.199218-4.613282-.613281-55.617187-14.972656-70.546874-37.527344-91.351562-85.417969-3.894531-8.960937.214844-19.386718 9.175781-23.277344 8.960938-3.894531 19.386719.214844 23.277344 9.175782 17.191406 39.5625 25.3125 53.828125 68.097656 65.347656 9.4375 2.539062 15.027344 12.25 12.484375 21.683594-2.125 7.898437-9.269531 13.101562-17.070312 13.101562zm0 0"
     fill="#f7ef87"
     id="path40" />
  <path
     d="m402.542969 504.5h-340.457031c-8.636719 0-15.640626-7.003906-15.640626-15.640625v-25.414063c0-8.640624 7.003907-15.640624 15.640626-15.640624h340.457031c8.636719 0 15.640625 7 15.640625 15.640624v25.414063c0 8.636719-7.003906 15.640625-15.640625 15.640625zm0 0"
     fill="#e1b89a"
     id="path42" />
  <path
     d="m62.085938 447.804688c-8.636719 0-15.640626 7-15.640626 15.640624v25.414063c0 8.636719 7.003907 15.640625 15.640626 15.640625h155.09375c-16.785157-11.539062-22.859376-40.925781-13.050782-56.695312zm0 0"
     fill="#d2996f"
     id="path44" />
  <path
     d="m335.152344 323.402344h-136.417969c-7.660156 0-13.871094 6.207031-13.871094 13.867187v83.371094h164.15625v-83.371094c0-7.660156-6.210937-13.867187-13.867187-13.867187zm0 0"
     fill="#c6c6c6"
     id="path46" />
  <path
     d="m339.171875 447.804688h-154.308594v-27.164063h164.15625v17.316406c0 5.4375-4.410156 9.847657-9.847656 9.847657zm0 0"
     fill="#9aa3b1"
     id="path48" />
  <path
     d="m128.589844 447.804688h56.273437v-27.164063h-56.273437c-5.4375 0-9.847656 4.410156-9.847656 9.847656v7.46875c0 5.4375 4.410156 9.847657 9.847656 9.847657zm0 0"
     fill="#c6c6c6"
     id="path50" />
  <path
     d="m446.253906 266.933594c6.144532-12.457032 1.007813-27.59375-11.453125-33.738282-12.460937-6.144531-27.59375-1.003906-33.738281 11.453126-9.65625 19.582031-22.59375 32.046874-38.449219 37.042968-9.277343 2.925782-19.347656 3.417969-30 1.476563-1.351562-8.050781-3.125-16.332031-5.335937-24.824219-8.371094-32.160156-22.789063-60.304688-41.726563-81.585938-1.253906-5.289062-4.125-10.097656-8.339843-13.765624-3.820313-3.328126-8.421876-5.433594-13.285157-6.183594-1.703125-1.269532-3.425781-2.496094-5.167969-3.675782 10.890626-7.136718 19.75-15.535156 26.429688-25.074218 21.554688-30.777344 19.214844-71.386719 15.898438-92.855469-.847657-5.492187-3.824219-10.277344-8.382813-13.472656-4.5625-3.1875-10.074219-4.347657-15.527344-3.269531-19.285156 3.828124-53.03125 13.769531-75.246093 38.445312-11.976563-24.792969-33.070313-43.113281-46.5625-52.992188-4.484376-3.289062-9.972657-4.566406-15.453126-3.597656-5.480468.964844-10.199218 4.042969-13.292968 8.664063-9.296875 13.902343-22.851563 38.332031-25.628906 65.722656-29.3125-15.589844-64.421876-13.390625-83.851563-10.390625-5.496094.847656-10.28125 3.824219-13.472656 8.382812-3.191407 4.558594-4.355469 10.074219-3.273438 15.527344 1.972657 9.929688 5.832031 24.941406 13.042969 40.082032 1.289062 2.695312 3.976562 4.273437 6.777344 4.273437 1.082031 0 2.179687-.234375 3.21875-.730469 3.738281-1.78125 5.328125-6.257812 3.546875-9.996094-6.546875-13.738281-10.070313-27.457031-11.875-36.546874-.277344-1.40625.023437-2.828126.847656-4.003907.824219-1.179687 2.054687-1.945312 3.472656-2.164062 44.078125-6.804688 69.714844 4.988281 81.367188 12.953125.21875 2.578125.535156 5.167968.992187 7.765625 2.824219 16.011719 10.371094 31.675781 22.441406 46.683593-12.273437 6.414063-23.289062 14.757813-32.859374 24.890626-13.941407-2.265626-25.933594-6.851563-35.671876-13.671876-3.535156-2.476562-6.9375-5.363281-10.113281-8.582031-2.910156-2.949219-7.65625-2.984375-10.605469-.074219-2.949218 2.90625-2.980468 7.65625-.074218 10.605469 3.8125 3.863281 7.914062 7.34375 12.1875 10.335938 9.539062 6.679687 20.742187 11.539062 33.414062 14.523437-1.234375 1.703125-2.433594 3.441406-3.597656 5.21875-4.316406 2.367188-7.921875 5.921875-10.371094 10.355469-2.703125 4.886719-3.757812 10.390625-3.128906 15.789063-10.515625 26.472656-14.4375 57.851562-11.304688 90.9375.558594 5.925781 1.289063 11.769531 2.167969 17.445312-8.121093 7.011719-11.148437 18.765625-6.652343 29.117188 15.609374 35.925781 28.75 61.179687 63.625 77.964843v6.5625c0 .796875.074218 1.578125.175781 2.347657h-49.332031c-12.757813 0-23.140626 10.378906-23.140626 23.140624v25.417969c0 12.757813 10.382813 23.136719 23.140626 23.136719h294.046874c4.140626 0 7.5-3.355469 7.5-7.5 0-4.140625-3.359374-7.5-7.5-7.5h-294.046874c-4.488282 0-8.140626-3.648438-8.140626-8.136719v-25.417969c0-4.488281 3.652344-8.140624 8.140626-8.140624h340.457031c4.488281 0 8.140625 3.652343 8.140625 8.140624v25.414063c0 4.488281-3.652344 8.140625-8.140625 8.140625h-11.070313c-4.140625 0-7.5 3.359375-7.5 7.5 0 4.144531 3.359375 7.5 7.5 7.5h11.070313c12.761719 0 23.140625-10.378906 23.140625-23.140625v-25.414063c0-12.761718-10.378906-23.140624-23.140625-23.140624h-46.203125c.105468-.769532.179687-1.550782.179687-2.351563v-100.683594c0-1.09375-.109375-2.15625-.269531-3.207031 7.445312-.71875 14.648438-2.148438 21.511719-4.3125 29.058593-9.160156 52.742187-30.882812 68.492187-62.816406zm-186.351562-95.429688c2.722656 0 5.363281.976563 7.460937 2.800782 2.601563 2.269531 4.023438 5.550781 3.898438 9.003906l-.277344 7.554687c-.332031 9.105469-7.089844 16.863281-16.0625 18.445313l-9.53125 1.679687c-8.96875 1.582031-17.972656-3.394531-21.398437-11.835937l-2.847657-7.007813c-1.273437-3.140625-1.082031-6.640625.507813-9.628906.304687-.398437.566406-.828125.785156-1.28125 1.726562-2.417969 4.316406-4.0625 7.28125-4.585937l28.1875-4.972657c.667969-.117187 1.332031-.171875 1.996094-.171875zm-50.113282-90.691406c-.457031-2.59375-1.042968-5.132812-1.722656-7.625 18.644532-26.054688 53.070313-36.253906 72.027344-40.015625 1.40625-.273437 2.828125.023437 4.003906.847656 1.175782.824219 1.945313 2.058594 2.164063 3.472657 2.972656 19.242187 5.183593 55.480468-13.359375 81.964843-6.820313 9.742188-16.519532 18.152344-28.847656 25.050781-12.457032-6.246093-25.660157-10.320312-39.386719-12.152343 6.207031-18.226563 7.941406-35.527344 5.121093-51.542969zm-93.230468 16.4375c-.542969-3.085938-.867188-6.171875-1.007813-9.25 0-.117188-.003906-.234375-.011719-.351562-1.164062-28.503907 13.816407-55.773438 23.550782-70.328126.796875-1.191406 2.015625-1.984374 3.429687-2.234374 1.414063-.242188 2.832031.082031 3.984375.929687 14.125 10.347656 37.527344 30.84375 46.183594 58.023437.03125.117188.070312.234376.113281.347657.917969 2.933593 1.667969 5.945312 2.214844 9.03125 2.566406 14.546875.574219 30.617187-5.882813 47.828125-8.441406-.09375-17.042968.609375-25.753906 2.144531-8.710937 1.535156-17.03125 3.816406-24.933594 6.796875-11.957031-13.96875-19.320312-28.390625-21.886718-42.9375zm-16.597656 87.023438c16.972656-19.058594 39.476562-31.429688 66.023437-36.113282 9.328125-1.640625 18.507813-2.222656 27.46875-1.761718h.035156c16.488281.851562 32.230469 5.246093 46.757813 13.046874.011718.007813.023437.011719.035156.019532.042969.023437.085938.042968.125.066406l-13.292969 2.34375c-6.074219 1.070312-11.46875 4.183594-15.398437 8.757812-10.507813.496094-24.199219 1.539063-40.976563 4.5-16.773437 2.957032-29.996093 6.65625-40.039062 9.785157-5.257813-2.953125-11.390625-4.035157-17.46875-2.960938h.003906l-13.296875 2.34375c.007812-.007812.015625-.019531.023438-.027343zm-20.300782 23.128906c1.671875-3.023438 4.582032-5.105469 7.988282-5.703125l28.1875-4.972657c.664062-.117187 1.332031-.171874 1.996093-.171874 2.3125 0 4.5625.710937 6.472657 2.039062.324218.308594.679687.582031 1.054687.828125 2.558594 2.265625 3.957031 5.515625 3.832031 8.9375l-.277344 7.554687c-.335937 9.105469-7.089843 16.863282-16.0625 18.445313l-9.53125 1.679687c-8.972656 1.585938-17.972656-3.394531-21.402343-11.835937l-2.84375-7.007813c-1.300781-3.199218-1.085938-6.773437.585937-9.792968zm-18.28125 140.050781c-2.09375-4.816406-.15625-10.386719 4.3125-12.925781.109375-.050782.210938-.101563.316406-.160156.214844-.113282.429688-.226563.65625-.324219 2.5-1.085938 5.269532-1.136719 7.800782-.136719 2.535156 1 4.527344 2.925781 5.609375 5.421875 17.480469 40.230469 26.433593 57.058594 73.027343 69.601563 2.492188.667968 4.523438 2.203124 5.847657 4.207031h-30.359375c-4.425782 0-8.460938 1.683593-11.527344 4.425781-27.382812-13.335938-39.277344-32.34375-55.683594-70.109375zm115.984375 92.851563h-48.773437c-1.292969 0-2.347656-1.054688-2.347656-2.351563v-7.464844c0-1.296875 1.054687-2.351562 2.347656-2.351562h48.773437zm0-103.035157v75.867188h-2.367187c-2.003906-8.886719-8.726563-16.195313-17.996094-18.691407-39.707031-10.6875-46.328125-22.335937-63.167969-61.09375-2.679687-6.171874-7.605469-10.929687-13.863281-13.398437-3.691406-1.453125-7.582031-2.003906-11.417969-1.667969-.589843-4.203125-1.105469-8.488281-1.515625-12.832031-2.304687-24.355469-.53125-47.601563 5.09375-68.289063 6.46875 8.8125 16.886719 14.164063 27.894532 14.164063 1.953124 0 3.929687-.167969 5.902343-.515625l9.53125-1.683594c15.890625-2.800781 27.855469-16.539062 28.445313-32.664062l.277344-7.554688c.152343-4.09375-.640626-8.082031-2.257813-11.707031 8.542969-2.472656 18.964844-5.105469 31.421875-7.300781 12.457031-2.195313 23.152344-3.285156 32.023438-3.886719-.277344 3.960937.339843 7.976563 1.878906 11.773437l2.847656 7.003907c5.316406 13.09375 18.203125 21.484375 31.996094 21.484375 1.957031 0 3.933594-.171875 5.90625-.519532l9.53125-1.679687c13.078125-2.304687 23.488281-12.019531 27.097656-24.375 12.359375 17.511719 21.972656 38.75 28.136719 62.417969 5.019531 19.277344 7.691406 37.328125 7.972656 53.777344h-122c-11.785156.003906-21.371094 9.589843-21.371094 21.371093zm164.15625 100.6875c0 1.292969-1.054687 2.347657-2.347656 2.347657-.007813 0-.015625 0-.019531 0h-146.789063v-12.164063h149.15625zm0-24.820312h-149.15625v-75.867188c0-3.511719 2.855469-6.367187 6.371094-6.367187h136.417969c3.507812 0 6.367187 2.855468 6.367187 6.367187zm5.597657-93.558594c-3.261719-2.214844-7.171876-3.53125-11.375-3.648437-.089844-5.597657-.441407-11.363282-1.039063-17.269532 11.339844 1.4375 22.207031.558594 32.417969-2.660156 19.914062-6.277344 35.859375-21.320312 47.394531-44.714844 2.484375-5.042968 8.609375-7.121094 13.652344-4.636718 5.039062 2.488281 7.117187 8.609374 4.632812 13.652343-13.894531 28.175781-34.484375 47.242188-59.546875 55.140625-8.183594 2.578125-16.96875 3.957032-26.136718 4.136719zm-97.203126-36.917969c.640626 3.636719 3.804688 6.199219 7.375 6.199219.433594 0 .871094-.039063 1.3125-.117187 4.078126-.71875 6.804688-4.609376 6.082032-8.6875l-1.925782-10.917969c-.71875-4.078125-4.605468-6.804688-8.6875-6.085938-4.078124.71875-6.804687 4.609375-6.082031 8.691407zm-34.546874 11.59375c2.136718-3.546875.996093-8.15625-2.554688-10.296875-3.546875-2.136719-8.15625-.992187-10.292969 2.554688-2.371093 3.933593-6.316406 6.648437-10.828125 7.445312-4.511718.792969-9.148437-.40625-12.722656-3.292969-3.222656-2.601562-7.945312-2.101562-10.546875 1.121094s-2.101563 7.945313 1.121094 10.546875c5.542969 4.476563 12.398437 6.863281 19.402343 6.863281 1.78125 0 3.570313-.152343 5.351563-.46875 8.78125-1.546874 16.460937-6.820312 21.070313-14.472656zm-84.175782-1.917968c-.71875-4.082032-4.609375-6.808594-8.6875-6.085938-4.078125.71875-6.804687 4.609375-6.085937 8.6875l1.925781 10.921875c.644531 3.640625 3.808594 6.199219 7.378906 6.199219.429688 0 .871094-.039063 1.308594-.117188 4.082031-.71875 6.804688-4.605468 6.085938-8.6875zm0 0"
     id="path54" />
  <g
     id="Layer_2"
     data-name="Layer 2"
     transform="matrix(0.0972723,0,0,0.0972723,243.63985,349.26896)">
    <circle
       style="display:inline;fill:#f0b01f;stroke:none;stroke-width:7.10861;stroke-linecap:round;stroke-linejoin:round;paint-order:stroke markers fill"
       id="circle910"
       cx="256"
       cy="256"
       r="256" />
    <path
       id="circle912"
       style="display:inline;fill:#ffffff;fill-opacity:1;stroke:none;stroke-width:6.22004;stroke-linecap:round;stroke-linejoin:round;paint-order:stroke markers fill"
       d="m 249.13867,32.105469 a 223.99998,223.99998 0 0 0 -89.46875,21.666015 l 0.0137,0.0039 c 9.17137,2.531133 17.90736,6.430927 25.91407,11.570312 1.75034,1.085861 3.49242,2.228421 5.22656,3.427735 0.60022,0.415963 1.18767,0.850267 1.78125,1.27539 7.84886,-2.67621 15.85811,-4.855541 23.98242,-6.519531 0.69078,-0.847595 1.38834,-1.689217 2.0957,-2.523438 1.62068,-1.944826 3.31909,-3.872744 5.09375,-5.785156 7.72857,-8.467903 16.22402,-16.197045 25.36133,-23.115234 z m 13.72461,0 c 9.13684,6.91795 17.63116,14.647715 25.35938,23.115234 1.77466,1.912412 3.47307,3.84033 5.09375,5.785156 0.70946,0.836704 1.40878,1.681093 2.10156,2.53125 8.12246,1.663357 16.13255,3.8363 23.98047,6.511719 0.59273,-0.424493 1.17799,-0.86003 1.77734,-1.27539 1.73414,-1.199313 3.47622,-2.341874 5.22656,-3.427735 8.00671,-5.139385 16.7427,-9.039179 25.91407,-11.570312 l 0.0137,-0.0039 A 223.99998,223.99998 0 0 0 262.86328,32.105469 Z M 256,34.630859 c -10.08452,7.230597 -19.37396,15.510138 -27.71289,24.699219 -7.07133,7.646789 -13.40417,15.944749 -18.91406,24.783203 -0.76578,1.215516 -1.50658,2.43051 -2.24805,3.767578 -0.74146,1.337068 -1.4478,2.552913 -2.14062,3.853516 -8.75175,16.348695 -14.71835,35.652685 -13.47852,57.130855 -16.65257,-19.898 -33.26855,-29.01606 -49.39844,-31.17968 -1.42215,-0.19448 -2.83219,-0.32749 -4.24219,-0.40039 -1.21552,-0.0851 -2.43096,-0.1211 -3.64648,-0.1211 h -0.62109 c -7.33367,0.15241 -14.59949,1.43981 -21.53907,3.81641 -15.947558,5.29965 -31.117716,15.47402 -44.974606,26.20703 7.53989,0.0904 15.022823,1.31978 22.195313,3.64648 10.748573,3.52699 20.995723,8.42965 30.486323,14.58594 0.004,0.003 0.009,0.005 0.0137,0.008 3.74631,-2.10614 7.62287,-3.97238 11.60547,-5.58789 1.39785,-0.58345 2.7838,-1.10515 4.18164,-1.60351 1.39784,-0.49836 2.80723,-0.94805 4.20507,-1.36133 6.85051,-2.08189 13.96724,-3.16278 21.12696,-3.20898 13.69696,0.0258 27.06054,4.22289 38.3125,12.0332 1.27224,0.85897 2.53694,1.77006 3.79297,2.73437 1.21551,0.89948 2.43011,1.86071 3.56054,2.85743 0.72175,0.60343 1.44376,1.1865 2.1543,1.86718 0.001,-0.54921 0.0281,-1.09727 0.0684,-1.64062 0.041,-0.55306 0.0942,-1.10146 0.13672,-1.64844 0.0608,-0.88125 0.13284,-1.75417 0.21484,-2.61719 0.082,-0.86301 0.17429,-1.71771 0.27149,-2.5625 l 0.0684,-0.0371 c 0.19333,-1.67588 0.43269,-3.60426 0.70898,-5.25 2.17347,-14.58212 7.12482,-28.61028 14.58594,-41.32617 0.86302,-1.45862 1.72639,-2.84544 2.60156,-4.1582 0.53482,-0.83871 1.08193,-1.64156 1.62891,-2.43164 0.3525,-0.49837 0.69242,-0.98298 1.04492,-1.45703 11.04837,-15.267065 22.31652,-22.280546 22.80273,-22.572269 L 256,85.511719 l 3.14844,1.945312 c 0.48621,0.291723 11.75446,7.305004 22.80273,22.572269 0.3525,0.47405 0.69242,0.95866 1.04492,1.45703 0.54698,0.79008 1.09409,1.59293 1.62891,2.43164 0.87517,1.31276 1.73854,2.69958 2.60156,4.1582 7.46112,12.71589 12.41247,26.74405 14.58594,41.32617 0.27629,1.64574 0.51565,3.57412 0.70898,5.25 l 0.0684,0.0371 c 0.0972,0.84479 0.18949,1.69949 0.27149,2.5625 0.082,0.86302 0.15404,1.73594 0.21484,2.61719 0.0425,0.54698 0.0957,1.09538 0.13672,1.64844 0.0403,0.54335 0.0674,1.09141 0.0684,1.64062 0.71054,-0.68068 1.43255,-1.26375 2.1543,-1.86718 1.13043,-0.99672 2.34503,-1.95795 3.56054,-2.85743 1.25603,-0.96431 2.52073,-1.8754 3.79297,-2.73437 11.25196,-7.81031 24.61554,-12.0074 38.3125,-12.0332 7.15972,0.0462 14.27645,1.12709 21.12696,3.20898 1.39784,0.41328 2.80723,0.86297 4.20507,1.36133 1.39784,0.49836 2.78379,1.02006 4.18164,1.60351 3.9826,1.61551 7.85916,3.48175 11.60547,5.58789 0.005,-0.003 0.01,-0.005 0.0137,-0.008 9.49061,-6.15629 19.73775,-11.05895 30.48632,-14.58594 7.17249,-2.3267 14.65543,-3.55608 22.19532,-3.64648 -13.85689,-10.73301 -29.02704,-20.90738 -44.97461,-26.20703 -6.93958,-2.3766 -14.2054,-3.664 -21.53907,-3.81641 h -0.62109 c -1.21552,0 -2.43096,0.036 -3.64648,0.1211 -1.41,0.0729 -2.82004,0.20591 -4.24219,0.40039 -16.12989,2.16362 -32.74587,11.28168 -49.39844,31.17968 1.23983,-21.47817 -4.7268,-40.78216 -13.47852,-57.130855 -0.69283,-1.300603 -1.39916,-2.516448 -2.14062,-3.853516 -0.74147,-1.337068 -1.48227,-2.552062 -2.24805,-3.767578 C 297.11696,75.275027 290.78422,66.976867 283.71289,59.330078 275.37406,50.140797 266.08452,41.861456 256,34.630859 Z m 106.26562,24.179688 c 4.44183,9.566231 7.94439,19.542118 10.44727,29.789062 0.81439,3.208963 1.5806,6.440764 2.27344,9.722657 0.11619,0.526954 0.21354,1.066268 0.32617,1.595703 5.03631,3.849861 9.88304,7.941641 14.52344,12.259761 0.60118,0.10545 1.20413,0.19743 1.80273,0.31836 3.46951,0.69271 6.89222,1.60205 10.24805,2.72266 18.09904,6.00465 34.51928,17.67328 46.82031,27.1543 l 0.26758,0.20703 0.3457,0.26758 A 223.99998,223.99998 0 0 0 362.26562,58.810547 Z m -212.53124,0.002 A 223.99998,223.99998 0 0 0 62.683594,142.84575 l 0.341797,-0.26562 0.267578,-0.20703 c 12.30103,-9.48102 28.721274,-21.14965 46.820311,-27.1543 3.35583,-1.12061 6.77854,-2.02995 10.24805,-2.72266 0.5986,-0.12093 1.20155,-0.21291 1.80273,-0.31836 4.64009,-4.31794 9.48575,-8.40824 14.52149,-12.257811 0.11278,-0.530188 0.21176,-1.069956 0.32812,-1.597656 0.69284,-3.281893 1.45905,-6.513694 2.27344,-9.722657 2.50274,-10.246368 6.0058,-20.221369 10.44727,-29.787109 z m 7.79687,3.179688 c -4.31149,9.213711 -7.70277,18.82899 -10.125,28.708984 -1.75034,6.78258 -3.22178,13.846261 -4.38867,20.957031 14.963,2.04207 29.28274,9.46714 42.67773,22.13282 1.56006,-15.77744 6.29849,-31.07567 13.92969,-44.972664 0.26155,-0.487437 0.52396,-0.986639 0.79688,-1.474609 C 194.4571,81.825368 187.98762,76.877628 181.09961,72.566406 173.81478,67.885542 165.87103,64.32185 157.53125,61.992188 Z m 196.9375,0 c -8.33978,2.329664 -16.28353,5.893354 -23.56836,10.574218 -6.88801,4.311222 -13.3575,9.258962 -19.32227,14.777344 0.27292,0.48797 0.53533,0.987172 0.79688,1.474609 7.6312,13.896994 12.36963,29.195224 13.92969,44.972664 13.39499,-12.66568 27.71473,-20.09075 42.67773,-22.13282 -1.16689,-7.11077 -2.63833,-14.174451 -4.38867,-20.957031 -2.42223,-9.879994 -5.81351,-19.495272 -10.125,-28.708984 z M 256,92.634766 c 0,0 -11.72986,7.171505 -22.66992,23.337894 -0.9238,1.33707 -1.82318,2.74602 -2.72266,4.21679 -0.89948,1.47078 -1.80993,3.06457 -2.69726,4.69336 -5.14185,9.59295 -8.80588,19.90664 -10.86719,30.59375 -0.34034,1.77465 -0.65598,3.6463 -0.93555,5.44532 -0.27957,1.79893 -0.48759,3.48813 -0.66992,5.2871 -0.76528,7.35673 -0.92244,14.76375 -0.47266,22.14649 -0.0346,-0.0421 -0.0707,-0.083 -0.10546,-0.125 0.003,0.054 0.005,0.10811 0.008,0.16211 -0.52302,-0.6354 -1.05501,-1.26327 -1.59375,-1.88477 -1.07749,-1.243 -2.18555,-2.4588 -3.32422,-3.64453 -1.13868,-1.18572 -2.30632,-2.34255 -3.50391,-3.46875 -0.59879,-0.5631 -1.20526,-1.11822 -1.81836,-1.66601 -0.61309,-0.5478 -1.2342,-1.08695 -1.86133,-1.61914 -0.62709,-0.53221 -1.2615,-1.05788 -1.90234,-1.57422 -1.21552,-0.98457 -2.43096,-1.90847 -3.64648,-2.77149 -0.60776,-0.4315 -1.26637,-0.88619 -1.93946,-1.33594 -0.67309,-0.44974 -1.35903,-0.89358 -2.02148,-1.30078 l 0.0801,-0.0469 c -9.68742,-6.0955 -20.89405,-9.33953 -32.33985,-9.36133 -7.05437,0.0479 -14.06013,1.17431 -20.77343,3.3418 -1.38569,0.43758 -2.77252,0.92502 -4.15821,1.43554 -1.38569,0.51051 -2.74605,1.06847 -4.10742,1.66407 -2.13931,0.9238 -4.2433,1.93338 -6.33398,3.02734 -1.02103,0.52673 -2.02866,1.07339 -3.02539,1.64062 -0.98457,0.54698 -1.95771,1.11968 -2.91797,1.70313 -13.27161,8.29581 -25.145257,18.64158 -35.177737,30.6543 44.692017,3.44624 69.055317,14.05183 82.658207,27.19726 -1.26314,0.94182 -2.50387,1.90738 -3.73243,2.88672 -15.1838,12.12427 -27.63825,27.16715 -36.35351,44.21485 l 6.09766,5.16015 40.98828,-34.67969 40.98632,34.67969 40.73243,-34.52148 0.12109,-0.10938 0.12109,0.10938 40.73243,34.52148 40.98632,-34.67969 40.98828,34.67969 6.08985,-5.15234 c -8.89993,-17.41221 -21.69341,-32.74013 -37.31836,-44.9961 -0.0423,-0.0331 -0.0827,-0.0685 -0.125,-0.10156 -0.87045,-0.67936 -1.7477,-1.3503 -2.63477,-2.01172 13.60289,-13.14543 37.96619,-23.75102 82.65821,-27.19726 -10.03248,-12.01272 -21.90613,-22.35849 -35.17774,-30.6543 -0.96026,-0.58345 -1.9334,-1.15615 -2.91797,-1.70313 -0.99673,-0.56723 -2.00436,-1.11389 -3.02539,-1.64062 -2.09068,-1.09396 -4.19467,-2.10354 -6.33398,-3.02734 -1.36137,-0.5956 -2.72173,-1.15356 -4.10742,-1.66407 -1.38569,-0.51052 -2.77252,-0.99796 -4.15821,-1.43554 -6.7133,-2.16749 -13.71906,-3.2939 -20.77343,-3.3418 -11.4458,0.0218 -22.65243,3.26583 -32.33985,9.36133 l 0.0801,0.0469 c -0.66245,0.4072 -1.34839,0.85104 -2.02148,1.30078 -0.67309,0.44975 -1.3317,0.90444 -1.93946,1.33594 -1.21552,0.86302 -2.43096,1.78692 -3.64648,2.77149 -0.64084,0.51634 -1.27526,1.04201 -1.90234,1.57422 -0.62712,0.53219 -1.24824,1.07134 -1.86133,1.61914 -0.6131,0.54779 -1.21957,1.10291 -1.81836,1.66601 -1.19759,1.1262 -2.36523,2.28303 -3.50391,3.46875 -1.13867,1.18573 -2.24673,2.40153 -3.32422,3.64453 -0.53874,0.6215 -1.07073,1.24937 -1.59375,1.88477 0.003,-0.054 0.005,-0.10811 0.008,-0.16211 -0.0348,0.042 -0.0709,0.0829 -0.10546,0.125 0.44978,-7.38274 0.29262,-14.78976 -0.47266,-22.14649 -0.18233,-1.79897 -0.39035,-3.48817 -0.66992,-5.2871 -0.27957,-1.79901 -0.59521,-3.67067 -0.93555,-5.44532 -2.06131,-10.68711 -5.72534,-21.0008 -10.86719,-30.59375 -0.88733,-1.62879 -1.79778,-3.22258 -2.69726,-4.69336 -0.89948,-1.47077 -1.79886,-2.87972 -2.72266,-4.21679 C 267.72986,99.806271 256,92.634766 256,92.634766 Z M 56.949219,153.26367 A 223.99998,223.99998 0 0 0 32,256 223.99998,223.99998 0 0 0 256,480 223.99998,223.99998 0 0 0 480,256 223.99998,223.99998 0 0 0 455.05078,153.26367 h -10.0625 c -6.43426,0.0863 -12.82339,1.08918 -18.97461,2.97852 l -0.64258,0.19336 c 17.73078,30.16144 27.09938,64.53212 27.09961,99.56445 -2.2e-4,50.14086 -19.17099,98.38432 -53.58593,134.84961 v -55.5 c 0,-6.36846 -0.4766,-12.63229 -1.39258,-18.76367 l -18.66407,15.79687 -40.98828,-34.6914 -40.98632,34.6914 L 256,297.80078 l -40.85352,34.58203 -40.98632,-34.6914 -40.98828,34.6914 -18.67383,-15.80664 c -0.91695,6.13451 -1.39453,12.40159 -1.39453,18.77344 v 55.48828 C 78.69562,354.37372 59.529346,306.1352 59.529297,256 c 4.17e-4,-35.02582 9.368702,-69.39679 27.103515,-99.56445 l -0.646484,-0.19336 c -6.15122,-1.88934 -12.540349,-2.89222 -18.974609,-2.97852 z m 117.210941,102.60156 -37.11133,31.34961 c -2.26612,1.91778 -5.58544,1.91778 -7.85156,0 l -4.82813,-4.08398 c -3.80447,8.42419 -6.71683,17.28673 -8.625,26.48828 L 133.17188,324.37305 170.23242,293 c 1.13306,-0.95889 2.53089,-1.4375 3.92774,-1.4375 1.39685,0 2.79272,0.47861 3.92578,1.4375 l 37.06054,31.37305 36.92774,-31.26367 c 1.13306,-0.95889 2.52925,-1.4375 3.92578,-1.4375 1.39653,0 2.79272,0.47861 3.92578,1.4375 L 296.85352,324.37305 333.91406,293 c 1.13306,-0.95889 2.52893,-1.4375 3.92578,-1.4375 1.39685,0 2.79468,0.47861 3.92774,1.4375 l 37.06054,31.37305 17.41797,-14.74414 c -1.90758,-9.20241 -4.82086,-18.06523 -8.625,-26.49024 l -4.81836,4.07617 c -2.26612,1.91778 -5.58544,1.91778 -7.85156,0 l -37.11133,-31.34961 -37.01172,31.34961 c -2.26611,1.91778 -5.58544,1.91778 -7.85156,0 L 256,255.97461 219.02344,287.21484 c -2.26612,1.91778 -5.58547,1.91778 -7.85156,0 z m 71.65625,89.09571 c 0.27121,-9.5e-4 0.48133,0.038 0.625,0.12109 4.59718,2.65793 4.59718,85.887 0,88.54492 -4.56297,2.65793 -76.68164,-38.95758 -76.68164,-44.27343 0,-5.14974 67.64907,-44.36318 76.05664,-44.39258 z m 80.13671,0 c 0.27121,-9.5e-4 0.48134,0.038 0.625,0.12109 4.5972,2.65793 4.60861,85.887 0,88.54492 -4.56296,2.65793 -76.66992,-38.95758 -76.66992,-44.27343 0,-5.14974 67.63802,-44.36318 76.04492,-44.39258 z" />
  </g>
</svg>
