<?xml version="1.0" encoding="UTF-8" standalone="no"?>
<svg
   xmlns:osb="http://www.openswatchbook.org/uri/2009/osb"
   xmlns:dc="http://purl.org/dc/elements/1.1/"
   xmlns:cc="http://creativecommons.org/ns#"
   xmlns:rdf="http://www.w3.org/1999/02/22-rdf-syntax-ns#"
   xmlns:svg="http://www.w3.org/2000/svg"
   xmlns="http://www.w3.org/2000/svg"
   xmlns:xlink="http://www.w3.org/1999/xlink"
   version="1.1"
   id="svg2"
   width="364"
   height="323.81934"
   viewBox="0 0 364 323.81934">
  <metadata
     id="metadata8">
    <rdf:RDF>
      <cc:Work
         rdf:about="">
        <dc:format>image/svg+xml</dc:format>
        <dc:type
           rdf:resource="http://purl.org/dc/dcmitype/StillImage" />
        <dc:title></dc:title>
      </cc:Work>
    </rdf:RDF>
  </metadata>
  <defs
     id="defs6">
    <linearGradient
       id="linearGradient2989-3-6-5-3">
      <stop
         style="stop-color:#990099;stop-opacity:1"
         offset="0"
         id="stop3018" />
      <stop
         style="stop-color:#db0000;stop-opacity:1"
         offset="1"
         id="stop3020" />
    </linearGradient>
    <linearGradient
       id="linearGradient2973"
       osb:paint="solid">
      <stop
         style="stop-color:#980097;stop-opacity:1;"
         offset="0"
         id="stop2971" />
    </linearGradient>
    <linearGradient
       id="linearGradient2935"
       osb:paint="solid">
      <stop
         style="stop-color:#980097;stop-opacity:1;"
         offset="0"
         id="stop2933" />
    </linearGradient>
    <linearGradient
       xlink:href="#linearGradient2989-3-6-5-3"
       id="linearGradient2991"
       x1="670.97241"
       y1="268.04599"
       x2="1034.9724"
       y2="268.04599"
       gradientUnits="userSpaceOnUse"
       gradientTransform="translate(-558.6797,4.406798)" />
  </defs>
  <g
     id="g10"
     transform="translate(-112.29271,-110.54313)">
    <path
       style="fill:url(#linearGradient2991);fill-opacity:1;stroke:none"
       d="m 112.29271,203.42803 c 1.648,5.721 4.62201,11.134 8.04201,16 28.353,40.333 83.991,14.152 115.958,-7 v -1 c -17.516,-1.529 -25,-13.701 -25,-30 22.503,19.118 47.748,-9.094 72,-9.741 6.2,-0.165 12.855,2.136 18,5.441 3.564,2.289 7.441,6.951 12,6.623 5.36,-0.385 10.632,-3.892 16,-4.858 15.405,-2.773 28.551,4.851 34,19.535 -10.214,-3.825 -20.651,0.159 -30,4.756 -18.149,8.924 -34.508,21.257 -50,34.164 -37.351,31.119 -84.334,66.468 -102.796,113.08 -3.346,8.448 -5.966,17.866 -6.189,27 -0.181,7.38 -0.1,14.864 2.027,22 13.989,46.916 71.985,36.913 106.958,24.997 22.851,-7.786 44.631,-19.479 65,-32.316 17.631,-11.111 34.234,-23.638 50,-37.257 7.94,-6.86 18.128,-15.032 23,-24.424 -19.802,10.539 -38.617,24.368 -61,29 v -1 c 25.806,-9.448 50.237,-34.825 69.039,-54.015 8.183,-8.35 17.69898,-17.421 22.96098,-27.985 l -43.99998,27 c 35.20398,-30.658 58.95898,-61.379 67.99998,-108 h -1 c -11.965,20.29 -23.797,43.637 -43.99998,57 20.78698,-31.515 49.91998,-97.598 10,-127 1.16298,9.006 3.70398,17.826 2.82998,27 -6.85898,72.032 -77.61098,126.965 -127.82998,171.155 -16.045,14.119 -31.75,30.108 -49,42.686 -6.729,4.907 -16.576,9.329 -23.895,2.88 -7.654,-6.743 -4.683,-16.435 0.532,-23.721 10.193,-14.238 26.843,-24.58 40.363,-35.4 9.458,-7.569 18.736,-15.384 28,-23.19 6.838,-5.762 13.256,-11.976 20,-17.834 33.625,-29.211 83.149,-79.182 52.452,-126.576 -21.803,-33.662 -68.915,-38.538 -103.452,-24.547 -35.766,14.488 -64.946,46.409 -97,67.544 -15.547,10.251 -35.523,23.754 -55,22.963 -6.193,-0.252 -11.2,-3.29 -17.00001,-4.96 m 166.00001,1 c 9.935,1.762 20.546,-2.191 27,-10 -10.588,-4.468 -20.723,1.115 -27,10 m 130,99 v 1 l -3,1 z"
       id="path925" />
  </g>
</svg>
