<svg xmlns="http://www.w3.org/2000/svg" xmlns:xlink="http://www.w3.org/1999/xlink" viewBox="0 0 421.21 483.8"><defs><style>.cls-1{fill:#fff;}.cls-2{fill:none;}.cls-3{fill:#f0b01f;}.cls-4{mask:url(#mask);}.cls-5{clip-path:url(#clip-path);}</style><mask id="mask" x="-33.2" y="-25.14" width="471.83" height="508.94" maskUnits="userSpaceOnUse"><circle class="cls-1" cx="210.6" cy="219.66" r="163.61"/><circle class="cls-1" cx="130.41" cy="138.47" r="163.61"/><circle class="cls-1" cx="275.02" cy="138.47" r="163.61"/></mask><clipPath id="clip-path"><path class="cls-2" d="M212.29,173.69h0c64.93,0,117.56,49.36,117.56,110.26v89.59c0,60.89-52.63,110.26-117.56,110.26h0c-64.92,0-117.55-49.37-117.55-110.26V284C94.74,223.05,147.37,173.69,212.29,173.69Z"/></clipPath></defs><g id="Layer_2" data-name="Layer 2"><g id="Capa_1" data-name="Capa 1"><circle class="cls-3" cx="210.6" cy="218.66" r="210.6"/><circle class="cls-1" cx="210.6" cy="218.66" r="185.58"/><circle class="cls-3" cx="210.6" cy="218.66" r="163.61"/><g class="cls-4"><g id="g1608"><g id="path1610"><path class="cls-1" d="M297.06,168.5a12,12,0,0,1-6-1.77l-52.37-30c-6.66-3.82-9.7-10.59-8.57-19.09,3.06-23,35.09-54.82,62.32-61.93L295.2,55l1.26,2.58C311.27,88,316.53,146.07,306,162.9c-2.9,4.63-6.46,5.6-8.94,5.6Zm-169.53,0c-2.48,0-6-1-8.94-5.61-10.53-16.83-5.27-74.92,9.54-105.35L129.38,55l2.78.73c27.22,7.11,59.25,39,62.31,61.93,1.14,8.5-1.91,15.27-8.56,19.09l-52.37,30A12.06,12.06,0,0,1,127.53,168.5Z"/><path class="cls-3" d="M293.31,59.07C310.28,94,314,165,297.06,165a8.69,8.69,0,0,1-4.27-1.3l-52.37-30c-23.71-13.59,17.09-65.24,52.89-74.6h0m-162,0c35.8,9.36,76.6,61,52.9,74.6l-52.37,30a8.72,8.72,0,0,1-4.27,1.3c-16.94,0-13.23-71,3.74-105.93h0m165.82-8.22-5.55,1.45c-13.83,3.62-29.2,13.18-42.17,26.24s-21.19,27.06-22.73,38.62c-1.33,10,2.33,18,10.3,22.59l52.37,30a15.54,15.54,0,0,0,7.75,2.23c2.75,0,8-.94,11.9-7.25,7.74-12.37,6.26-39,5.26-49.89-2-22.22-7.5-44.22-14.61-58.85l-2.52-5.16Zm-169.6,0L125,56c-7.12,14.63-12.58,36.63-14.62,58.85-1,10.88-2.48,37.52,5.26,49.89,3.95,6.31,9.15,7.25,11.91,7.25a15.57,15.57,0,0,0,7.75-2.23l52.37-30c8-4.57,11.63-12.59,10.29-22.59-1.54-11.56-9.82-25.64-22.72-38.62S146.88,55.92,133,52.3l-5.55-1.45Z"/></g><path class="cls-1" d="M265.73,204.52c-.14-.1-13.82-10.37-27.36-20.7-16.15-12.31-23.07-17.74-26.08-20.37-3,2.63-9.92,8.06-26.08,20.37-13.54,10.33-27.22,20.6-27.35,20.7l-2.54,1.91-1.26-2.92c-7.93-18.43-57.32-71.77-98.25-71.86l-7.3,0,5.77-4.46C70.48,115.43,90.68,102,112.12,102c15.81,0,30.76,7.36,44.51,21.9.56-21.36,9.47-43,26-62.92a149,149,0,0,1,28.26-26.45l1.4-.94,1.4.94A148.56,148.56,0,0,1,242,60.93c16.53,19.95,25.43,41.56,26,62.92,13.74-14.54,28.69-21.9,44.5-21.9,21.44,0,41.64,13.48,56.84,25.22l5.78,4.46-7.3,0c-40.94.09-90.33,53.43-98.25,71.86l-1.26,2.92Z"/><path class="cls-3" d="M212.29,36.55s56.29,37.94,53.06,94c15.93-19.06,31.82-26.1,47.11-26.1,19.84,0,38.68,11.85,55.31,24.7-42,.09-92.11,53.75-100.54,73.38,0,0-54.6-41-54.94-42.52-.34,1.52-54.93,42.52-54.93,42.52-8.44-19.63-58.51-73.29-100.55-73.38,16.63-12.85,35.48-24.7,55.31-24.7,15.3,0,31.18,7,47.11,26.1-3.23-56.06,53.06-94,53.06-94m0-6L209.5,32.4a152,152,0,0,0-28.8,26.94C165.25,78,156.32,98.08,154.47,118.15c-13.15-12.42-27.35-18.7-42.35-18.7-22.19,0-42.85,13.76-58.37,25.74L42.2,134.12l14.6,0c17,0,38.16,10,59.66,28.19C135,178,149,195.72,152.76,204.5l2.51,5.84,5.09-3.82c.13-.1,13.82-10.38,27.37-20.71,8-6.07,14.33-11,18.92-14.59,2.33-1.82,4.22-3.33,5.64-4.5,1.43,1.17,3.32,2.68,5.64,4.5,4.59,3.61,11,8.52,18.93,14.59,13.55,10.33,27.23,20.61,27.37,20.71l5.08,3.82,2.51-5.84c3.78-8.78,17.78-26.54,36.3-42.16,21.51-18.14,42.69-28.15,59.66-28.19l14.6,0-11.55-8.93c-10.35-8-19-13.61-27.3-17.7-11-5.41-21.15-8-31.07-8-15,0-29.2,6.28-42.34,18.7C268.26,98.08,259.33,78,243.88,59.34A151.82,151.82,0,0,0,215.09,32.4l-2.8-1.88Z"/><path class="cls-1" d="M265.73,252.21c-.14-.1-13.82-10.38-27.36-20.7-16.15-12.32-23.07-17.75-26.08-20.38-3,2.63-9.92,8.06-26.08,20.38-13.54,10.32-27.22,20.6-27.35,20.7l-2.54,1.91-1.26-2.92c-1.85-4.3-2.49-9.74-3.17-15.49-2.61-22.05-6.17-52.25-81-58L66,177.34l3.18-3.74C88.94,150.31,112.57,137,134,137c15.28,0,29.29,6.49,41.74,19.32C175.65,104.38,209.48,83,211,82.1l1.3-.8,1.31.8c1.5.92,35.34,22.28,35.25,74.18C261.3,143.45,275.31,137,290.59,137c21.42,0,45.05,13.35,64.83,36.64l3.17,3.74-4.89.37c-74.83,5.75-78.4,35.95-81,58-.68,5.75-1.32,11.19-3.16,15.49l-1.26,2.92Z"/><path class="cls-3" d="M212.29,84.23S249.37,107,246.15,163c14.13-16.92,29.45-23.56,44.44-23.56,23.8,0,46.79,16.76,62.92,35.76-96.35,7.41-77.85,55.37-86.28,75,0,0-54.6-41-54.94-42.52-.34,1.52-54.93,42.52-54.93,42.52-8.44-19.62,10.06-67.58-86.29-75,16.13-19,39.12-35.76,62.93-35.76,15,0,30.3,6.64,44.44,23.56-3.23-56.06,33.85-78.79,33.85-78.79m0-5.86L209.68,80c-.42.25-10.27,6.38-19.62,19.77-7.29,10.43-15.51,27.22-16.68,50.8C161.5,139.86,148.3,134.46,134,134.46c-22.17,0-46.49,13.67-66.74,37.52l-6.34,7.47,9.77.75c32.74,2.52,54.4,9.82,66.23,22.31,9.75,10.29,11.2,22.62,12.49,33.49.7,5.94,1.36,11.55,3.35,16.18l2.51,5.85,5.09-3.82c.14-.11,13.82-10.38,27.37-20.71,8-6.08,14.33-11,18.92-14.59,2.33-1.83,4.22-3.34,5.64-4.5,1.43,1.16,3.32,2.67,5.64,4.5,4.59,3.6,11,8.51,18.93,14.59,13.54,10.33,27.23,20.6,27.37,20.71l5.08,3.82,2.51-5.85c2-4.63,2.66-10.24,3.36-16.18,1.28-10.87,2.74-23.2,12.48-33.49,11.83-12.49,33.5-19.79,66.24-22.31l9.77-.75L357.32,172c-20.25-23.85-44.57-37.52-66.73-37.52-14.3,0-27.51,5.4-39.39,16.08-1.17-23.58-9.38-40.37-16.67-50.8C225.17,86.35,215.32,80.22,214.91,80l-2.62-1.6Z"/></g><path id="rect1470" class="cls-1" d="M212.29,173.69h0c64.93,0,117.56,49.36,117.56,110.26v89.59c0,60.89-52.63,110.26-117.56,110.26h0c-64.92,0-117.55-49.37-117.55-110.26V284C94.74,223.05,147.37,173.69,212.29,173.69Z"/><path id="rect1470-2" data-name="rect1470" class="cls-1" d="M212.29,173.69h0c64.93,0,117.56,49.36,117.56,110.26v89.59c0,60.89-52.63,110.26-117.56,110.26h0c-64.92,0-117.55-49.37-117.55-110.26V284C94.74,223.05,147.37,173.69,212.29,173.69Z"/><g class="cls-5"><g id="rect1474"><path class="cls-3" d="M255.23,383.68l39.71,33.6a5,5,0,0,0,6.46,0l34.72-29.37v39L298.17,459l-39.71-33.6a5,5,0,0,0-6.46,0L212.29,459l-39.71-33.6a5,5,0,0,0-6.46,0L126.41,459,88.47,426.92v-39l34.71,29.37a5,5,0,0,0,6.46,0l39.71-33.6,39.71,33.6a5,5,0,0,0,6.46,0l39.71-33.6m85.89-6.55-42.95,36.33-42.94-36.33-42.94,36.33-42.94-36.33-42.94,36.33L83.47,377.13v52.11l42.94,36.34,42.94-36.34,42.94,36.34,42.94-36.34,42.94,36.34,42.95-36.34V377.13Z"/></g><path class="cls-3" d="M347.07,218.56l30.49,25.79a5,5,0,0,0,6.46,0l25.49-21.56v27.82l-28.72,24.31L350.3,249.11a5,5,0,0,0-6.46,0l-30.49,25.81-30.49-25.81a5,5,0,0,0-6.46,0l-30.49,25.81L215.53,249.2a5,5,0,0,0-6.46,0l-30.39,25.72-30.49-25.81a5,5,0,0,0-6.46,0l-30.49,25.81L80.75,249.11a5,5,0,0,0-6.46,0L43.8,274.92,15.08,250.61V222.79l25.49,21.56a5,5,0,0,0,6.46,0l30.49-25.79L108,244.35a5,5,0,0,0,6.46,0L145,218.56l30.49,25.79a5,5,0,0,0,6.46,0l30.38-25.7,30.39,25.7a5,5,0,0,0,6.46,0l30.49-25.79,30.49,25.79a5,5,0,0,0,6.46,0l30.49-25.79M414.51,212l-33.72,28.53L347.07,212l-33.72,28.53L279.63,212l-33.72,28.53L212.4,212.19l-.1-.09-.11.09-33.51,28.35L145,212l-33.72,28.53L77.52,212,43.8,240.54,10.08,212v40.92L43.8,281.47l33.72-28.54,33.72,28.54L145,252.93l33.72,28.54L212.3,253l33.61,28.45,33.72-28.54,33.72,28.54,33.72-28.54,33.72,28.54,33.72-28.54V212Z"/></g><g id="g936"><path id="path988-5" class="cls-3" d="M204.2,359.19c-4,2.33-67.22-34.15-67.22-38.81s63.18-41.14,67.22-38.81,4,75.29,0,77.62Z"/><path id="path990-3" class="cls-3" d="M274.45,359.19c-4,2.33-67.22-34.15-67.22-38.81s63.19-41.14,67.22-38.81,4,75.29,0,77.62Z"/></g></g><polygon class="cls-3" points="406.95 0 406.85 0.09 406.95 0.18 406.95 0 406.95 0"/><polygon class="cls-3" points="406.74 0 406.74 0.18 406.85 0.09 406.74 0 406.74 0"/></g></g></svg>