<?xml version="1.0" encoding="UTF-8" standalone="no"?>
<svg
   xmlns:dc="http://purl.org/dc/elements/1.1/"
   xmlns:cc="http://creativecommons.org/ns#"
   xmlns:rdf="http://www.w3.org/1999/02/22-rdf-syntax-ns#"
   xmlns:svg="http://www.w3.org/2000/svg"
   xmlns="http://www.w3.org/2000/svg"
   xmlns:sodipodi="http://sodipodi.sourceforge.net/DTD/sodipodi-0.dtd"
   xmlns:inkscape="http://www.inkscape.org/namespaces/inkscape"
   viewBox="0 0 421.20002 429.26002"
   version="1.1"
   id="svg1856"
   sodipodi:docname="rizin.svg"
   width="421.20001"
   height="429.26001"
   inkscape:version="1.0.1 (3bc2e813f5, 2020-09-07)">
  <metadata
     id="metadata1860">
    <rdf:RDF>
      <cc:Work
         rdf:about="">
        <dc:format>image/svg+xml</dc:format>
        <dc:type
           rdf:resource="http://purl.org/dc/dcmitype/StillImage" />
        <dc:title></dc:title>
      </cc:Work>
    </rdf:RDF>
  </metadata>
  <sodipodi:namedview
     pagecolor="#ffffff"
     bordercolor="#666666"
     borderopacity="1"
     objecttolerance="10"
     gridtolerance="10"
     guidetolerance="10"
     inkscape:pageopacity="0"
     inkscape:pageshadow="2"
     inkscape:window-width="1920"
     inkscape:window-height="1033"
     id="namedview1858"
     showgrid="false"
     inkscape:zoom="1.4778835"
     inkscape:cx="210.605"
     inkscape:cy="241.89999"
     inkscape:window-x="1680"
     inkscape:window-y="18"
     inkscape:window-maximized="1"
     inkscape:current-layer="svg1856" />
  <defs
     id="defs1814">
    <style
       id="style1802">.cls-1{fill:#fff;}.cls-2{fill:none;}.cls-3{fill:#f0b01f;}.cls-4{mask:url(#mask);}.cls-5{clip-path:url(#clip-path);}</style>
    <mask
       id="mask"
       x="-33.2"
       y="-25.14"
       width="471.83"
       height="508.94"
       maskUnits="userSpaceOnUse">
      <circle
         class="cls-1"
         cx="210.60001"
         cy="219.66"
         r="163.61"
         id="circle1804" />
      <circle
         class="cls-1"
         cx="130.41"
         cy="138.47"
         r="163.61"
         id="circle1806" />
      <circle
         class="cls-1"
         cx="275.01999"
         cy="138.47"
         r="163.61"
         id="circle1808" />
    </mask>
    <clipPath
       id="clip-path">
      <path
         class="cls-2"
         d="m 212.29,173.69 v 0 c 64.93,0 117.56,49.36 117.56,110.26 v 89.59 c 0,60.89 -52.63,110.26 -117.56,110.26 v 0 C 147.37,483.8 94.74,434.43 94.74,373.54 V 284 c 0,-60.95 52.63,-110.31 117.55,-110.31 z"
         id="path1811" />
    </clipPath>
  </defs>
  <g
     id="Layer_2"
     data-name="Layer 2">
    <g
       id="Capa_1"
       data-name="Capa 1">
      <circle
         class="cls-3"
         cx="210.60001"
         cy="218.66"
         r="210.60001"
         id="circle1816" />
      <circle
         class="cls-1"
         cx="210.60001"
         cy="218.66"
         r="185.58"
         id="circle1818" />
      <circle
         class="cls-3"
         cx="210.60001"
         cy="218.66"
         r="163.61"
         id="circle1820" />
      <g
         class="cls-4"
         mask="url(#mask)"
         id="g1848">
        <g
           id="g1608">
          <g
             id="path1610">
            <path
               class="cls-1"
               d="m 297.06,168.5 a 12,12 0 0 1 -6,-1.77 l -52.37,-30 c -6.66,-3.82 -9.7,-10.59 -8.57,-19.09 3.06,-23 35.09,-54.82 62.32,-61.93 l 2.76,-0.71 1.26,2.58 c 14.81,30.42 20.07,88.49 9.54,105.32 -2.9,4.63 -6.46,5.6 -8.94,5.6 z m -169.53,0 c -2.48,0 -6,-1 -8.94,-5.61 -10.53,-16.83 -5.27,-74.92 9.54,-105.35 l 1.25,-2.54 2.78,0.73 c 27.22,7.11 59.25,39 62.31,61.93 1.14,8.5 -1.91,15.27 -8.56,19.09 l -52.37,30 a 12.06,12.06 0 0 1 -6.01,1.75 z"
               id="path1822" />
            <path
               class="cls-3"
               d="M 293.31,59.07 C 310.28,94 314,165 297.06,165 a 8.69,8.69 0 0 1 -4.27,-1.3 l -52.37,-30 c -23.71,-13.59 17.09,-65.24 52.89,-74.6 v 0 m -162,0 c 35.8,9.36 76.6,61 52.9,74.6 l -52.37,30 a 8.72,8.72 0 0 1 -4.27,1.3 c -16.94,0 -13.23,-71 3.74,-105.93 v 0 m 165.82,-8.22 -5.55,1.45 c -13.83,3.62 -29.2,13.18 -42.17,26.24 -12.97,13.06 -21.19,27.06 -22.73,38.62 -1.33,10 2.33,18 10.3,22.59 l 52.37,30 a 15.54,15.54 0 0 0 7.75,2.23 c 2.75,0 8,-0.94 11.9,-7.25 7.74,-12.37 6.26,-39 5.26,-49.89 -2,-22.22 -7.5,-44.22 -14.61,-58.85 l -2.52,-5.16 z m -169.6,0 L 125,56 c -7.12,14.63 -12.58,36.63 -14.62,58.85 -1,10.88 -2.48,37.52 5.26,49.89 3.95,6.31 9.15,7.25 11.91,7.25 a 15.57,15.57 0 0 0 7.75,-2.23 l 52.37,-30 c 8,-4.57 11.63,-12.59 10.29,-22.59 C 196.42,105.61 188.14,91.53 175.24,78.55 162.34,65.57 146.88,55.92 133,52.3 l -5.55,-1.45 z"
               id="path1824" />
          </g>
          <path
             class="cls-1"
             d="m 265.73,204.52 c -0.14,-0.1 -13.82,-10.37 -27.36,-20.7 -16.15,-12.31 -23.07,-17.74 -26.08,-20.37 -3,2.63 -9.92,8.06 -26.08,20.37 -13.54,10.33 -27.22,20.6 -27.35,20.7 l -2.54,1.91 -1.26,-2.92 C 147.13,185.08 97.74,131.74 56.81,131.65 h -7.3 l 5.77,-4.46 C 70.48,115.43 90.68,102 112.12,102 c 15.81,0 30.76,7.36 44.51,21.9 0.56,-21.36 9.47,-43 26,-62.92 a 149,149 0 0 1 28.26,-26.45 l 1.4,-0.94 1.4,0.94 A 148.56,148.56 0 0 1 242,60.93 c 16.53,19.95 25.43,41.56 26,62.92 13.74,-14.54 28.69,-21.9 44.5,-21.9 21.44,0 41.64,13.48 56.84,25.22 l 5.78,4.46 h -7.3 c -40.94,0.09 -90.33,53.43 -98.25,71.86 l -1.26,2.92 z"
             id="path1827" />
          <path
             class="cls-3"
             d="m 212.29,36.55 c 0,0 56.29,37.94 53.06,94 15.93,-19.06 31.82,-26.1 47.11,-26.1 19.84,0 38.68,11.85 55.31,24.7 -42,0.09 -92.11,53.75 -100.54,73.38 0,0 -54.6,-41 -54.94,-42.52 -0.34,1.52 -54.93,42.52 -54.93,42.52 -8.44,-19.63 -58.51,-73.29 -100.55,-73.38 16.63,-12.85 35.48,-24.7 55.31,-24.7 15.3,0 31.18,7 47.11,26.1 -3.23,-56.06 53.06,-94 53.06,-94 m 0,-6 -2.79,1.85 a 152,152 0 0 0 -28.8,26.94 c -15.45,18.66 -24.38,38.74 -26.23,58.81 -13.15,-12.42 -27.35,-18.7 -42.35,-18.7 -22.19,0 -42.85,13.76 -58.37,25.74 l -11.55,8.93 h 14.6 c 17,0 38.16,10 59.66,28.19 C 135,178 149,195.72 152.76,204.5 l 2.51,5.84 5.09,-3.82 c 0.13,-0.1 13.82,-10.38 27.37,-20.71 8,-6.07 14.33,-11 18.92,-14.59 2.33,-1.82 4.22,-3.33 5.64,-4.5 1.43,1.17 3.32,2.68 5.64,4.5 4.59,3.61 11,8.52 18.93,14.59 13.55,10.33 27.23,20.61 27.37,20.71 l 5.08,3.82 2.51,-5.84 c 3.78,-8.78 17.78,-26.54 36.3,-42.16 21.51,-18.14 42.69,-28.15 59.66,-28.19 h 14.6 l -11.55,-8.93 c -10.35,-8 -19,-13.61 -27.3,-17.7 -11,-5.41 -21.15,-8 -31.07,-8 -15,0 -29.2,6.28 -42.34,18.7 C 268.26,98.08 259.33,78 243.88,59.34 A 151.82,151.82 0 0 0 215.09,32.4 l -2.8,-1.88 z"
             id="path1829" />
          <path
             class="cls-1"
             d="m 265.73,252.21 c -0.14,-0.1 -13.82,-10.38 -27.36,-20.7 -16.15,-12.32 -23.07,-17.75 -26.08,-20.38 -3,2.63 -9.92,8.06 -26.08,20.38 -13.54,10.32 -27.22,20.6 -27.35,20.7 l -2.54,1.91 -1.26,-2.92 c -1.85,-4.3 -2.49,-9.74 -3.17,-15.49 -2.61,-22.05 -6.17,-52.25 -81,-58 L 66,177.34 69.18,173.6 C 88.94,150.31 112.57,137 134,137 c 15.28,0 29.29,6.49 41.74,19.32 C 175.65,104.38 209.48,83 211,82.1 l 1.3,-0.8 1.31,0.8 c 1.5,0.92 35.34,22.28 35.25,74.18 12.44,-12.83 26.45,-19.28 41.73,-19.28 21.42,0 45.05,13.35 64.83,36.64 l 3.17,3.74 -4.89,0.37 c -74.83,5.75 -78.4,35.95 -81,58 -0.68,5.75 -1.32,11.19 -3.16,15.49 l -1.26,2.92 z"
             id="path1831" />
          <path
             class="cls-3"
             d="m 212.29,84.23 c 0,0 37.08,22.77 33.86,78.77 14.13,-16.92 29.45,-23.56 44.44,-23.56 23.8,0 46.79,16.76 62.92,35.76 -96.35,7.41 -77.85,55.37 -86.28,75 0,0 -54.6,-41 -54.94,-42.52 -0.34,1.52 -54.93,42.52 -54.93,42.52 -8.44,-19.62 10.06,-67.58 -86.29,-75 16.13,-19 39.12,-35.76 62.93,-35.76 15,0 30.3,6.64 44.44,23.56 -3.23,-56.06 33.85,-78.79 33.85,-78.79 m 0,-5.86 -2.61,1.65 c -0.42,0.25 -10.27,6.38 -19.62,19.77 -7.29,10.43 -15.51,27.22 -16.68,50.8 C 161.5,139.86 148.3,134.46 134,134.46 c -22.17,0 -46.49,13.67 -66.74,37.52 l -6.34,7.47 9.77,0.75 c 32.74,2.52 54.4,9.82 66.23,22.31 9.75,10.29 11.2,22.62 12.49,33.49 0.7,5.94 1.36,11.55 3.35,16.18 l 2.51,5.85 5.09,-3.82 c 0.14,-0.11 13.82,-10.38 27.37,-20.71 8,-6.08 14.33,-11 18.92,-14.59 2.33,-1.83 4.22,-3.34 5.64,-4.5 1.43,1.16 3.32,2.67 5.64,4.5 4.59,3.6 11,8.51 18.93,14.59 13.54,10.33 27.23,20.6 27.37,20.71 l 5.08,3.82 2.51,-5.85 c 2,-4.63 2.66,-10.24 3.36,-16.18 1.28,-10.87 2.74,-23.2 12.48,-33.49 11.83,-12.49 33.5,-19.79 66.24,-22.31 l 9.77,-0.75 -6.35,-7.45 c -20.25,-23.85 -44.57,-37.52 -66.73,-37.52 -14.3,0 -27.51,5.4 -39.39,16.08 -1.17,-23.58 -9.38,-40.37 -16.67,-50.8 C 225.17,86.35 215.32,80.22 214.91,80 l -2.62,-1.6 z"
             id="path1833" />
        </g>
        <path
           id="rect1470"
           class="cls-1"
           d="m 212.29,173.69 v 0 c 64.93,0 117.56,49.36 117.56,110.26 v 89.59 c 0,60.89 -52.63,110.26 -117.56,110.26 v 0 C 147.37,483.8 94.74,434.43 94.74,373.54 V 284 c 0,-60.95 52.63,-110.31 117.55,-110.31 z" />
        <path
           id="rect1470-2"
           data-name="rect1470"
           class="cls-1"
           d="m 212.29,173.69 v 0 c 64.93,0 117.56,49.36 117.56,110.26 v 89.59 c 0,60.89 -52.63,110.26 -117.56,110.26 v 0 C 147.37,483.8 94.74,434.43 94.74,373.54 V 284 c 0,-60.95 52.63,-110.31 117.55,-110.31 z" />
        <g
           class="cls-5"
           clip-path="url(#clip-path)"
           id="g1843">
          <g
             id="rect1474">
            <path
               class="cls-3"
               d="m 255.23,383.68 39.71,33.6 a 5,5 0 0 0 6.46,0 l 34.72,-29.37 v 39 L 298.17,459 258.46,425.4 a 5,5 0 0 0 -6.46,0 L 212.29,459 172.58,425.4 a 5,5 0 0 0 -6.46,0 L 126.41,459 88.47,426.92 v -39 l 34.71,29.37 a 5,5 0 0 0 6.46,0 l 39.71,-33.6 39.71,33.6 a 5,5 0 0 0 6.46,0 l 39.71,-33.6 m 85.89,-6.55 -42.95,36.33 -42.94,-36.33 -42.94,36.33 -42.94,-36.33 -42.94,36.33 -42.94,-36.34 v 52.11 l 42.94,36.34 42.94,-36.34 42.94,36.34 42.94,-36.34 42.94,36.34 42.95,-36.34 v -52.11 z"
               id="path1838" />
          </g>
          <path
             class="cls-3"
             d="m 347.07,218.56 30.49,25.79 a 5,5 0 0 0 6.46,0 l 25.49,-21.56 v 27.82 l -28.72,24.31 -30.49,-25.81 a 5,5 0 0 0 -6.46,0 l -30.49,25.81 -30.49,-25.81 a 5,5 0 0 0 -6.46,0 l -30.49,25.81 -30.38,-25.72 a 5,5 0 0 0 -6.46,0 l -30.39,25.72 -30.49,-25.81 a 5,5 0 0 0 -6.46,0 l -30.49,25.81 -30.49,-25.81 a 5,5 0 0 0 -6.46,0 L 43.8,274.92 15.08,250.61 v -27.82 l 25.49,21.56 a 5,5 0 0 0 6.46,0 L 77.52,218.56 108,244.35 a 5,5 0 0 0 6.46,0 l 30.54,-25.79 30.49,25.79 a 5,5 0 0 0 6.46,0 l 30.38,-25.7 30.39,25.7 a 5,5 0 0 0 6.46,0 l 30.49,-25.79 30.49,25.79 a 5,5 0 0 0 6.46,0 l 30.49,-25.79 M 414.51,212 380.79,240.53 347.07,212 313.35,240.53 279.63,212 l -33.72,28.53 -33.51,-28.34 -0.1,-0.09 -0.11,0.09 -33.51,28.35 L 145,212 111.28,240.53 77.52,212 43.8,240.54 10.08,212 v 40.92 l 33.72,28.55 33.72,-28.54 33.72,28.54 33.76,-28.54 33.72,28.54 33.58,-28.47 33.61,28.45 33.72,-28.54 33.72,28.54 33.72,-28.54 33.72,28.54 33.72,-28.54 V 212 Z"
             id="path1841" />
        </g>
        <g
           id="g936">
          <path
             id="path988-5"
             class="cls-3"
             d="m 204.2,359.19 c -4,2.33 -67.22,-34.15 -67.22,-38.81 0,-4.66 63.18,-41.14 67.22,-38.81 4.04,2.33 4,75.29 0,77.62 z" />
          <path
             id="path990-3"
             class="cls-3"
             d="m 274.45,359.19 c -4,2.33 -67.22,-34.15 -67.22,-38.81 0,-4.66 63.19,-41.14 67.22,-38.81 4.03,2.33 4,75.29 0,77.62 z" />
        </g>
      </g>
      <polygon
         class="cls-3"
         points="406.95,0.18 406.95,0 406.85,0.09 "
         id="polygon1850" />
      <polygon
         class="cls-3"
         points="406.85,0.09 406.74,0 406.74,0.18 "
         id="polygon1852" />
    </g>
  </g>
</svg>
