<?xml version="1.0" standalone="no"?>
<!DOCTYPE svg PUBLIC "-//W3C//DTD SVG 20010904//EN"
 "http://www.w3.org/TR/2001/REC-SVG-20010904/DTD/svg10.dtd">
<svg version="1.0" xmlns="http://www.w3.org/2000/svg"
 width="858.000000pt" height="858.000000pt" viewBox="0 0 858.000000 858.000000"
 preserveAspectRatio="xMidYMid meet">
<metadata>
Created by potrace 1.11, written by Peter Selinger 2001-2013
</metadata>
<g transform="translate(0.000000,858.000000) scale(0.100000,-0.100000)"
fill="#000000" stroke="none">
<path d="M4036 8410 c-1329 -87 -2530 -780 -3252 -1875 -382 -580 -601 -1192
-681 -1899 -23 -207 -23 -643 0 -854 88 -787 370 -1502 833 -2114 381 -502
903 -936 1465 -1219 451 -226 983 -378 1504 -430 167 -17 603 -17 770 0 1558
156 2876 1117 3486 2543 165 386 276 823 320 1263 17 167 17 602 0 770 -116
1157 -667 2179 -1566 2902 -621 500 -1388 813 -2197 897 -181 19 -514 27 -682
16z m183 -513 c-14 -12 -67 -55 -118 -96 -50 -41 -157 -141 -237 -223 l-145
-148 -114 -25 c-118 -25 -260 -63 -331 -89 l-41 -14 -89 54 c-114 68 -267 137
-372 166 -45 13 -82 26 -82 29 0 10 167 83 314 138 364 136 814 224 1166 229
l75 1 -26 -22z m539 -8 c360 -45 697 -139 1041 -290 66 -29 117 -56 113 -60
-4 -3 -49 -20 -101 -38 -110 -38 -221 -92 -334 -163 l-80 -50 -116 36 c-64 19
-165 47 -224 62 l-109 27 -187 186 c-102 102 -223 213 -268 246 -45 33 -82 64
-83 68 0 11 157 0 348 -24z m-338 -110 c117 -91 339 -306 447 -434 181 -214
348 -501 428 -734 51 -148 84 -324 92 -485 l6 -136 105 105 c57 58 143 135
191 171 99 75 272 164 381 195 106 30 323 37 443 15 174 -33 362 -108 545
-217 152 -91 386 -259 361 -259 -8 0 -53 -5 -99 -10 -213 -26 -438 -107 -658
-237 l-94 -55 -107 50 c-457 217 -889 182 -1263 -101 -50 -38 -91 -67 -93 -65
-2 2 -9 50 -15 108 -52 482 -256 895 -587 1190 -40 35 -97 80 -127 98 l-55 34
-53 -36 c-82 -54 -206 -166 -276 -249 -240 -284 -381 -613 -428 -998 -10 -79
-19 -146 -20 -148 -2 -2 -39 24 -84 57 -245 186 -484 264 -758 249 -178 -10
-341 -54 -525 -141 l-96 -46 -113 63 c-263 146 -398 191 -697 234 l-54 8 114
82 c384 275 650 388 940 400 329 14 571 -92 857 -372 l132 -131 0 99 c0 487
250 1006 700 1457 110 109 343 309 362 310 3 0 47 -32 98 -71z m-1820 -273 c0
-2 -16 -38 -36 -81 -61 -132 -140 -371 -178 -536 -4 -17 -36 -49 -98 -97 -51
-39 -138 -111 -193 -161 -59 -53 -112 -93 -130 -97 -57 -13 -231 -86 -332
-140 -129 -69 -301 -183 -463 -307 -69 -52 -127 -93 -129 -91 -2 2 22 47 54
101 335 565 809 1026 1398 1360 86 49 107 58 107 49z m3610 -122 c490 -295
947 -747 1239 -1228 23 -37 41 -70 39 -71 -2 -2 -39 23 -83 56 -178 134 -359
244 -524 318 -90 40 -269 101 -299 101 -9 0 -55 34 -102 76 -47 42 -110 96
-140 120 l-55 43 -33 133 c-39 153 -98 335 -147 449 -19 43 -31 79 -27 79 4 0
63 -34 132 -76z m-3418 -10 c186 -67 397 -196 581 -356 l38 -33 -55 -115 c-88
-184 -156 -406 -181 -598 l-7 -52 -76 63 c-182 151 -381 252 -564 287 -45 9
-58 15 -58 29 0 25 44 240 69 337 46 179 151 464 172 464 4 0 41 -12 81 -26z
m3196 -71 c71 -173 163 -505 187 -675 7 -46 6 -47 -21 -53 -227 -46 -423 -143
-607 -299 -68 -58 -77 -58 -77 1 0 103 -95 420 -179 595 -28 59 -51 109 -51
112 0 10 176 150 261 206 47 32 128 80 179 106 88 44 232 102 256 104 6 0 30
-44 52 -97z m-1534 -507 c124 -107 271 -303 359 -482 124 -247 187 -520 190
-821 1 -84 3 -153 3 -153 1 0 48 46 105 103 120 118 221 190 352 252 145 69
219 86 387 92 161 6 258 -7 397 -53 182 -61 402 -188 578 -336 90 -76 291
-273 307 -302 12 -21 9 -21 -142 -36 -164 -15 -376 -52 -525 -90 -269 -70
-477 -170 -648 -312 l-29 -23 100 -83 c205 -170 416 -424 527 -636 l30 -57
-50 -44 c-42 -37 -52 -42 -65 -31 -8 7 -160 135 -338 285 l-322 272 -323 -272
c-177 -150 -329 -278 -337 -285 -13 -11 -60 25 -303 231 -158 134 -309 261
-335 284 l-48 40 -220 -186 c-120 -102 -271 -230 -336 -284 l-116 -99 -337
286 -337 286 -21 -20 c-12 -10 -141 -120 -287 -242 -146 -123 -288 -243 -315
-266 l-50 -43 -52 43 -51 43 38 71 c119 219 304 442 510 615 47 39 89 74 94
79 24 20 -135 138 -286 211 -235 114 -553 195 -893 227 -188 17 -180 6 -83
112 168 184 423 381 623 481 114 56 245 101 360 122 124 23 338 16 450 -14
202 -56 402 -185 566 -364 l56 -61 6 169 c10 246 36 401 103 600 97 291 297
579 523 754 l53 42 37 -28 c20 -15 62 -50 95 -77z m-3031 -916 c26 -6 47 -13
47 -15 0 -2 -14 -28 -31 -56 -46 -79 -102 -193 -154 -314 -387 -907 -344
-1944 117 -2815 121 -229 288 -467 470 -669 l93 -104 6 604 c6 558 12 699 28
699 3 0 72 -57 154 -126 94 -80 152 -122 160 -118 6 5 158 132 336 282 297
252 326 274 345 262 11 -7 163 -134 338 -282 286 -243 320 -268 336 -256 11 7
159 132 331 278 172 146 317 266 321 268 5 2 155 -120 332 -270 178 -151 328
-277 335 -281 8 -5 133 95 343 273 182 154 335 280 340 280 5 0 158 -126 339
-280 182 -154 333 -280 335 -280 2 0 70 56 152 125 81 69 151 125 155 125 16
0 20 -111 25 -657 l6 -572 60 67 c153 171 356 470 463 683 393 779 460 1679
187 2505 -59 177 -131 347 -212 501 l-60 112 53 15 c79 23 197 36 316 36 l108
0 56 -122 c178 -393 280 -757 329 -1183 17 -144 17 -626 0 -770 -84 -728 -347
-1368 -793 -1931 -130 -164 -416 -450 -583 -583 -558 -443 -1188 -703 -1926
-793 -139 -17 -641 -17 -780 0 -738 90 -1368 350 -1926 793 -167 133 -453 419
-583 583 -548 692 -828 1521 -808 2391 13 542 116 992 340 1484 l61 133 195
-5 c108 -3 217 -11 244 -17z m1867 -1930 c166 -140 316 -261 333 -268 23 -9
40 -10 57 -4 14 6 164 127 334 271 266 225 311 259 325 249 9 -7 146 -123 306
-257 159 -135 302 -251 318 -259 24 -12 33 -12 62 -1 18 8 169 129 335 269
165 140 304 256 308 258 4 1 147 -117 319 -262 171 -145 323 -266 336 -270 34
-8 73 8 119 49 21 19 42 35 46 35 18 0 142 -366 142 -419 0 -20 -277 -254
-293 -248 -7 3 -106 85 -222 184 -430 366 -401 343 -445 343 -44 0 -17 20
-440 -339 -124 -105 -230 -190 -237 -189 -6 2 -94 73 -194 158 -436 369 -437
370 -472 370 -18 0 -44 -8 -57 -17 -14 -10 -157 -130 -319 -267 -264 -223
-296 -248 -314 -237 -10 7 -121 99 -245 205 -396 335 -371 316 -412 316 -45 0
-31 10 -383 -288 -158 -134 -292 -242 -297 -240 -23 8 -280 233 -280 245 0 59
119 423 139 423 3 0 28 -17 53 -39 53 -44 86 -55 120 -42 13 5 162 126 333
270 170 144 313 260 317 259 4 -2 142 -118 308 -258z"/>
<path d="M4065 2929 c-362 -147 -1245 -682 -1245 -754 0 -80 1150 -754 1310
-767 31 -3 35 0 46 32 19 56 33 233 41 487 3 128 9 233 13 233 3 0 19 -14 36
-31 139 -146 1170 -729 1289 -729 41 0 55 153 62 661 6 522 -11 847 -47 883
-18 18 -100 -12 -295 -108 -349 -173 -805 -447 -986 -592 l-66 -52 -7 241 c-6
247 -17 384 -37 470 -10 42 -14 47 -37 46 -15 0 -49 -9 -77 -20z"/>
</g>
</svg>
